<?xml version="1.0" encoding="utf-8"?>
<!-- Generator: Adobe Illustrator 16.0.0, SVG Export Plug-In . SVG Version: 6.00 Build 0)  -->
<!DOCTYPE svg PUBLIC "-//W3C//DTD SVG 1.1//EN" "http://www.w3.org/Graphics/SVG/1.1/DTD/svg11.dtd">
<svg version="1.1" id="Layer_1" xmlns="http://www.w3.org/2000/svg" xmlns:xlink="http://www.w3.org/1999/xlink" x="0px" y="0px"
	 width="84px" height="83px" viewBox="0 0 84 83" enable-background="new 0 0 84 83" xml:space="preserve">
<g>
	<defs>
		<rect id="SVGID_1_" x="0" width="84" height="83"/>
	</defs>
	<clipPath id="SVGID_2_">
		<use xlink:href="#SVGID_1_"  overflow="visible"/>
	</clipPath>
	<path clip-path="url(#SVGID_2_)" d="M82.49,26.782h-6.007V1.508C76.483,0.676,75.808,0,74.975,0H8.981
		C8.148,0,7.473,0.676,7.473,1.508v25.274H1.508C0.675,26.782,0,27.456,0,28.29v45.251c0,0.833,0.676,1.509,1.509,1.509h7.621v6.441
		c0,0.833,0.676,1.509,1.509,1.509h10.761c0.834,0,1.509-0.676,1.509-1.509V75.05h38.183v6.441c0,0.833,0.675,1.509,1.509,1.509
		h10.762c0.832,0,1.508-0.676,1.508-1.509V75.05h7.621c0.834,0,1.508-0.676,1.508-1.509V28.29
		C83.998,27.456,83.324,26.782,82.49,26.782 M10.49,3.016h62.976v23.766h-5.486c-0.834,0-1.509,0.674-1.509,1.508v17.367h-49.3
		V28.29c0-0.834-0.676-1.508-1.509-1.508H10.49V3.016z M66.471,48.674v4.619v1.508v1.509v2.324h-2.362H62.6h-1.509H22.908h-1.509
		h-1.508h-2.72V56.31v-1.509v-1.508v-4.619H66.471z M19.891,79.983h-7.744V75.05h7.744V79.983z M71.853,79.983h-7.744V75.05h7.744
		V79.983z M80.981,72.033h-6.112h-1.508h-1.509h-7.744H62.6h-1.509H22.908h-1.509h-1.508h-7.744h-1.508H9.129H3.017V29.798h4.456
		h1.509h1.508h3.664v17.367v6.128v1.508v1.509v3.833c0,0.832,0.675,1.508,1.508,1.508h4.229h1.508h1.509h38.183H62.6h1.509h3.871
		c0.833,0,1.509-0.676,1.509-1.508V56.31v-1.509v-1.508V29.798h3.978h1.509h1.509h4.498V72.033z"/>
</g>
</svg>
