<?xml version="1.0" encoding="utf-8"?>
<!-- Generator: Adobe Illustrator 22.1.0, SVG Export Plug-In . SVG Version: 6.00 Build 0)  -->
<svg version="1.1" id="图层_1" xmlns="http://www.w3.org/2000/svg" xmlns:xlink="http://www.w3.org/1999/xlink" x="0px" y="0px"
	 width="49px" height="99px" viewBox="0 0 49 99" style="enable-background:new 0 0 49 99;" xml:space="preserve">
<g>
	<g>
		<path d="M36.5,0h-24C5.6,0,0,5.6,0,12.5v36C0,48.8,0.2,49,0.5,49h10c0.3,0,0.5-0.2,0.5-0.5V47h27v1.5c0,0.3,0.2,0.5,0.5,0.5h10
			c0.3,0,0.5-0.2,0.5-0.5v-36C49,5.6,43.4,0,36.5,0z M24.5,21.5L13.3,1h22.3C35.7,1,24.5,21.5,24.5,21.5z M10,48H1V12.5
			C1,6.2,6.2,1,12.5,1h-0.3L24,22.6V46H11V16.5c0-0.3-0.2-0.5-0.5-0.5c-0.3,0-0.5,0.2-0.5,0.5V48z M48,48h-9V16.5
			c0-0.3-0.2-0.5-0.5-0.5S38,16.2,38,16.5V46H25V22.6L36.8,1h-0.3C42.8,1,48,6.2,48,12.5C48,12.5,48,48,48,48z"/>
		<path d="M28.8,4.1c-0.1-0.1-0.3-0.1-0.5,0l-3.8,1.9l-3.8-1.9c-0.2-0.1-0.3-0.1-0.5,0C20.1,4.2,20,4.3,20,4.5v4
			c0,0.2,0.1,0.3,0.2,0.4C20.3,9,20.4,9,20.5,9c0.1,0,0.2,0,0.2-0.1l3.8-1.9l3.8,1.9C28.3,9,28.4,9,28.5,9c0.1,0,0.2,0,0.3-0.1
			C28.9,8.8,29,8.7,29,8.5v-4C29,4.3,28.9,4.2,28.8,4.1z M21,7.7V5.3l2.4,1.2L21,7.7z M28,7.7l-2.4-1.2L28,5.3V7.7z"/>
		<path d="M36.5,22h-6c-0.3,0-0.5,0.2-0.5,0.5s0.2,0.5,0.5,0.5h6c0.3,0,0.5-0.2,0.5-0.5S36.8,22,36.5,22z"/>
	</g>
	<g>
		<path d="M41,51.5c0-0.3-0.2-0.5-0.5-0.5h-33C7.2,51,7,51.2,7,51.5l-2,47c0,0.1,0,0.3,0.1,0.4S5.4,99,5.5,99h15
			c0.5,0,0.5,0,0.8-6.1L23,63H26l2,35.5c0,0.3,0.2,0.5,0.5,0.5h15c0.1,0,0.3-0.1,0.4-0.2c0.1-0.1,0.1-0.2,0.1-0.4
			C44,98.5,41,51.5,41,51.5z M29,98l-2-35.5c0-0.3-0.2-0.5-0.5-0.5h-4c-0.3,0-0.5,0.2-0.5,0.5c0,0-1.7,31.3-2,35.5H6l1.7-45l0-1
			L8,52h32l0.2,0l0,1L43,98H29z"/>
	</g>
</g>
</svg>
