<?xml version="1.0" encoding="utf-8"?>
<!-- Generator: Adobe Illustrator 22.1.0, SVG Export Plug-In . SVG Version: 6.00 Build 0)  -->
<svg version="1.1" id="图层_1" xmlns="http://www.w3.org/2000/svg" xmlns:xlink="http://www.w3.org/1999/xlink" x="0px" y="0px"
	 width="46.9px" height="75.3px" viewBox="0 0 46.9 75.3" style="enable-background:new 0 0 46.9 75.3;" xml:space="preserve">
<path d="M46.8,74.3L32.7,34.9c1.2-1.9,7.4-12.6,8.4-17c0.5-1.9,0-4-1.4-5.7c-1.6-2.1-4.4-3.5-7.1-3.7V0.7C32.7,0.3,32.3,0,32,0
	c-0.4,0-0.7,0.3-0.7,0.7v7.9c-3.5,0.3-6.5,2.5-7.8,5.6c-1.3-3.1-4.3-5.4-7.8-5.6V0.7c0-0.4-0.3-0.7-0.7-0.7c-0.4,0-0.7,0.3-0.7,0.7
	v7.9c-2.7,0.2-5.5,1.6-7.1,3.7c-1.4,1.7-1.8,3.7-1.4,5.7c1,4.3,7.3,15,8.4,17L0,74.3C0,74.5,0,74.8,0.1,75s0.3,0.3,0.6,0.3h45.4
	c0.2,0,0.4-0.1,0.6-0.3C46.9,74.8,46.9,74.5,46.8,74.3z M7.1,17.6c-0.5-1.9,0.4-3.5,1.1-4.5c1.5-1.9,4.2-3.2,6.7-3.2
	c4.3,0,7.8,3.5,7.8,7.8c0,0.4,0.3,0.7,0.7,0.7c0.4,0,0.7-0.3,0.7-0.7c0-4.3,3.5-7.8,7.8-7.8c2.6,0,5.2,1.2,6.7,3.2
	c0.8,1,1.6,2.5,1.1,4.5c-1,4.1-7.1,14.5-8.2,16.5H15.3C14.2,32.1,8,21.7,7.1,17.6z M1.7,73.8l13.7-38.3h16l13.7,38.3H1.7z"/>
</svg>
