<?xml version="1.0" encoding="UTF-8"?><svg version="1.1" viewBox="0 0 64 64" xmlns="http://www.w3.org/2000/svg" xmlns:xlink="http://www.w3.org/1999/xlink"><!--Generated by IJSVG (https://github.com/iconjar/IJSVG)--><g fill="#000"><path d="M52.5,20.814v-8c0,-0.276 -0.224,-0.5 -0.5,-0.5h-40c-0.276,0 -0.5,0.224 -0.5,0.5l0.01,7.902l-6,30c-0.027,0.137 0.004,0.279 0.086,0.393c0.082,0.114 0.208,0.187 0.348,0.202c0.104,0.012 10.587,1.189 19.402,1.189c5.227,0 8.876,-0.411 10.845,-1.224c0.751,-0.31 1.588,-1.062 2.475,-1.86c1.097,-0.986 2.339,-2.104 3.28,-2.104c0.002,0 0.004,0 0.005,0.001c0.749,0.074 2.475,1.435 3.734,2.429c0.851,0.671 1.586,1.251 2.08,1.515c0.734,0.391 1.979,0.581 3.809,0.581c2.966,0 6.358,-0.507 6.501,-0.528c0.136,-0.021 0.257,-0.095 0.335,-0.207c0.079,-0.112 0.108,-0.251 0.081,-0.385l-5.991,-29.904Zm-0.927,30.023c-2.04,0 -2.941,-0.252 -3.338,-0.464c-0.416,-0.222 -1.152,-0.802 -1.932,-1.417c-1.882,-1.484 -3.289,-2.543 -4.255,-2.639c-1.284,-0.149 -2.696,1.136 -4.053,2.355c-0.784,0.706 -1.596,1.436 -2.187,1.68c-1.848,0.762 -5.368,1.147 -10.464,1.147c-7.615,0 -16.493,-0.885 -18.749,-1.124l5.905,-29.561v-1.5h7.5c0.276,0 0.5,-0.224 0.5,-0.5c0,-0.276 -0.224,-0.5 -0.5,-0.5h-7.5v-5h39.001l0.006,5h-7.507c-0.276,0 -0.5,0.224 -0.5,0.5c0,0.276 0.224,0.5 0.5,0.5h7.508l0.002,1.598l5.896,29.48c-1.072,0.142 -3.611,0.445 -5.833,0.445Z"></path><path d="M32,16.314c-1.378,0 -2.5,1.122 -2.5,2.5c0,1.378 1.122,2.5 2.5,2.5c1.379,0 2.5,-1.122 2.5,-2.5c0,-1.378 -1.121,-2.5 -2.5,-2.5Zm0,4c-0.827,0 -1.5,-0.673 -1.5,-1.5c0,-0.827 0.673,-1.5 1.5,-1.5c0.827,0 1.5,0.673 1.5,1.5c0,0.827 -0.673,1.5 -1.5,1.5Z"></path></g></svg>