<?xml version="1.0" encoding="utf-8"?>
<!-- Generator: Adobe Illustrator 22.1.0, SVG Export Plug-In . SVG Version: 6.00 Build 0)  -->
<svg version="1.1" id="图层_1" xmlns="http://www.w3.org/2000/svg" xmlns:xlink="http://www.w3.org/1999/xlink" x="0px" y="0px"
	 width="18px" height="18px" viewBox="0 0 18 18" style="enable-background:new 0 0 18 18;" xml:space="preserve">
<style type="text/css">
	.st0{fill:#009B3F;stroke:#FFFFFF;stroke-width:0.5;stroke-miterlimit:10;}
</style>
<title>icon</title>
<path class="st0" d="M10,9.7v2.5c0.1,2.4-1.9,4.4-4.3,4.5c-0.3,0-0.5,0-0.8,0c-1.4-0.1-2.7-0.8-3.6-1.9c-1.3-1.8-1-4.3,0.8-5.6
	C2.3,9,2.5,8.9,2.7,8.8c0.5-0.3,1-0.5,1.6-0.5c0.4,0,0.8,0.2,1,0.5C5.3,9.1,5.2,9.5,5,9.8c-0.3,0.3-0.7,0.6-1.1,0.8
	c-1,0.5-1.4,1.6-1,2.6c0,0.1,0.1,0.1,0.1,0.2C3.9,14.7,5.7,14.9,7,14c0.1-0.1,0.1-0.1,0.2-0.2c0.5-0.5,0.7-1.2,0.7-1.9
	C7.8,9.7,7.8,7.4,8,5.2c0.2-2.3,2.3-4,4.7-3.8c0.1,0,0.3,0,0.4,0.1C13.7,1.6,14.4,1.7,15,2c2.1,0.9,3,3.3,2.1,5.4
	c-0.3,0.7-0.8,1.3-1.5,1.8c-0.6,0.4-1.2,0.7-1.9,0.9c-0.4,0-0.8-0.2-1-0.6c-0.2-0.5,0-1,0.4-1.2L14,7.7c0.8-0.4,1.3-1.2,1.2-2.1
	C15,4.7,14.3,4,13.4,3.8c-1.6-0.4-3,0.1-3.2,1.9C10.1,7,10,8.3,10,9.7L10,9.7z"/>
</svg>
