<?xml version="1.0" encoding="utf-8"?>
<!-- Generator: Adobe Illustrator 22.1.0, SVG Export Plug-In . SVG Version: 6.00 Build 0)  -->
<svg version="1.1" id="图层_1" xmlns="http://www.w3.org/2000/svg" xmlns:xlink="http://www.w3.org/1999/xlink" x="0px" y="0px"
	 width="18px" height="18px" viewBox="0 0 18 18" style="enable-background:new 0 0 18 18;" xml:space="preserve">
<style type="text/css">
	.st0{stroke:#FFFFFF;stroke-width:0.4;stroke-miterlimit:10;}
</style>
<title>icon</title>
<g>
	<path class="st0" d="M6.5,2.2l2.2,0.6L8.1,3.9h0.2c1.3-0.4,2.7-0.6,4.1-0.7c1.2-0.1,2.4,0,3.5,0.5c0.9,0.4,1.5,1.3,1.6,2.3
		c0.3,2.3,0.3,4.6,0,6.8c0,1-0.6,2-1.5,2.5c-0.7,0.4-1.4,0.6-2.2,0.5c-0.8,0-1.6-0.1-2.4-0.3h-0.1l0.3-1.3l1.1,0.2
		c0.4,0.1,0.8,0.1,1.2,0c0.8-0.2,1.4-1,1.3-1.8c0-2.1,0-4.3,0-6.4c0-0.1,0-0.3,0-0.4c-0.1-0.9-0.8-1.5-1.6-1.6
		c-0.8-0.1-1.6,0-2.4,0.2C10.6,4.6,9.9,4.8,9.4,5L9.1,5.1l0.9,0.3L9.3,6.5h5.2v1.1h-3V9h3v1.1h-3v2.3c0.4-0.1,0.8-0.3,1.1-0.6
		c0,0,0-0.1,0-0.2s-0.1-0.6-0.2-0.9l1.4-0.4l1.2,2.9L13.4,14L13,12.8l-0.8,0.6c-1.1,0.5-2.3,0.8-3.5,0.9c-0.5,0-1,0-1.5,0
		c-1-0.1-1.7-0.9-1.7-1.9c0-0.5,0-0.9,0-1.4c0-0.1,0.1-0.1,0.2-0.2h2.1v0.7C7.7,12.5,8,12.9,9,12.8l0,0v-2.7H5.9V9h0.9l0,0L5.9,8.2
		c0.7-0.8,1.2-1.6,1.7-2.5C7.1,5.9,6.6,5.9,6.3,6.4C6.1,6.7,5.8,7,5.5,7.3c0,0-0.2,0-0.2,0C4.9,7,4.4,6.7,3.9,6.4
		C5.1,5.2,5.9,3.8,6.5,2.2z M9,7.7c-0.5-0.2-1,0-1.2,0.4C7.7,8.2,7.6,8.3,7.5,8.4C7.3,8.6,7.1,8.8,6.9,9H9V7.7z"/>
	<path class="st0" d="M1,7.4l1-1.5c0.8,0.6,1.6,1.2,2.3,1.9c0.4,0.4,0.6,0.9,0.6,1.5c0,0.4-0.1,0.8-0.2,1.2c-0.2,0.9-0.6,1.7-1,2.5
		l-1.1,2.4L0.3,14l1-1l1.9-2.2c0.1-0.1,0.1-0.2,0.2-0.3C3.7,10,3.6,9.2,3,8.7c-0.1,0-0.1-0.1-0.2-0.1L1,7.4L1,7.4z"/>
	<path class="st0" d="M3.2,5.3c-0.8,0-1.5-0.6-1.6-1.4c0-0.8,0.7-1.5,1.6-1.5c0,0,0.1,0,0.1,0c0.4,0,0.9,0.2,1.2,0.6
		C5,3.6,4.9,4.4,4.3,4.9C4.2,5,4.1,5.1,3.9,5.2C3.7,5.2,3.5,5.3,3.2,5.3z"/>
</g>
</svg>
