<?xml version="1.0" encoding="UTF-8"?><svg version="1.1" viewBox="0 0 64 64" xmlns="http://www.w3.org/2000/svg" xmlns:xlink="http://www.w3.org/1999/xlink"><!--Generated by IJSVG (https://github.com/iconjar/IJSVG)--><path d="M52.485,11.879c-0.515,-2.059 -4.611,-4.379 -6.485,-4.379h-6c-0.108,0 -0.214,0.035 -0.3,0.1l-7.7,5.775l-7.7,-5.775c-0.086,-0.065 -0.191,-0.1 -0.3,-0.1h-6c-1.874,0 -5.97,2.32 -6.485,4.379c-1.992,7.968 -2.015,40.73 -2.015,42.121c0,0.276 0.224,0.5 0.5,0.5h7.5v3.5c0,0.276 0.224,0.5 0.5,0.5h28c0.276,0 0.5,-0.224 0.5,-0.5v-3.5h7.5c0.276,0 0.5,-0.224 0.5,-0.5c0,-1.391 -0.022,-34.153 -2.015,-42.121Zm-6.013,41.621l-1.973,-33.529c-0.017,-0.276 -0.259,-0.484 -0.528,-0.47c-0.275,0.016 -0.486,0.253 -0.47,0.528l1.999,33.984v3.487h-27v-3.487l1.999,-33.983c0.016,-0.275 -0.194,-0.512 -0.47,-0.528c-0.272,-0.017 -0.512,0.194 -0.528,0.47l-1.972,33.528h-7.028c0.011,-4.239 0.153,-34.056 1.984,-41.379c0.373,-1.492 3.887,-3.621 5.515,-3.621h5.833l7.867,5.9c0.178,0.134 0.422,0.134 0.6,0l7.867,-5.9h5.833c1.628,0 5.142,2.129 5.515,3.621c1.831,7.323 1.974,37.14 1.984,41.379h-7.027Z" fill="#000"></path></svg>