<?xml version="1.0" encoding="utf-8"?>
<!-- Generator: Adobe Illustrator 22.1.0, SVG Export Plug-In . SVG Version: 6.00 Build 0)  -->
<svg version="1.1" id="图层_1" xmlns="http://www.w3.org/2000/svg" xmlns:xlink="http://www.w3.org/1999/xlink" x="0px" y="0px"
	 width="18px" height="18px" viewBox="0 0 18 18" style="enable-background:new 0 0 18 18;" xml:space="preserve">
<style type="text/css">
	.st0{fill:#009B3F;stroke:#15943D;stroke-width:0.75;stroke-miterlimit:10;}
</style>
<title>icon1</title>
<g>
	<path class="st0" d="M12.6,6.3c0.3,0,0.7,0.1,1,0.2c1.3,0.3,2.3,1.1,3,2.2c0.9,1.3,0.8,3-0.2,4.2c-0.3,0.4-0.6,0.7-1,1
		c-0.1,0.1-0.1,0.2,0,0.3c0,0.3,0.2,0.6,0.3,1s0,0.3,0,0.4c-0.1,0.1-0.3,0.1-0.4,0c-0.4-0.2-0.8-0.5-1.2-0.7c-0.1,0-0.2,0-0.3,0
		c-0.9,0.2-1.8,0.3-2.7,0.1c-1.6-0.2-3-1.3-3.7-2.7l0,0c-0.4,0.1-0.9,0.1-1.3,0c-0.4,0-0.8-0.2-1.3-0.2c-0.1,0-0.1,0-0.2,0l-1.7,0.8
		c-0.1,0-0.2,0-0.4,0c-0.1,0-0.1-0.2-0.1-0.4s0.3-0.8,0.4-1.3c0.2-0.4,0-0.2,0-0.3c-0.7-0.5-1.3-1.2-1.7-2C0.5,7.3,0.7,5.7,1.6,4.4
		c0.9-1.2,2.2-2,3.7-2.2c2-0.5,4.2,0.1,5.8,1.4C11.9,4.3,12.4,5.3,12.6,6.3z M12.1,6.3c0-0.1,0-0.1,0-0.2c-0.3-1-1-1.8-2-2.4
		C8.9,2.8,7.5,2.4,6,2.5c-1.5,0.1-2.9,0.8-3.9,2C1,5.9,0.9,7.9,2,9.4c0.4,0.5,0.8,0.9,1.3,1.3c0.2,0.2,0.2,0.2,0.2,0.5L3.2,12
		c0,0.1,0,0.1,0,0.2l1.1-0.6c0.2-0.1,0.5-0.1,0.7,0h0.5c0.6,0.1,1.1,0.1,1.7,0l0,0C7,10.4,7.2,9.2,8,8.3c0.8-1,1.8-1.7,3.1-1.9
		L12.1,6.3z M15,14.8c-0.1-0.3-0.1-0.5-0.2-0.7c0-0.1,0-0.3,0.1-0.4l0.5-0.4c0.7-0.6,1.1-1.3,1.3-2.2c0.1-1-0.2-1.9-0.8-2.6
		C14,6.4,10.8,6.2,8.8,8.1C8.7,8.2,8.6,8.2,8.5,8.3c-1,1.1-1.2,2.8-0.4,4c0.8,1.3,2.2,2.1,3.7,2.2c0.6,0,1.2-0.1,1.8-0.2
		c0.1-0.1,0.3-0.1,0.5,0L15,14.8z"/>
	<path class="st0" d="M8.7,6.1C8.3,6.1,8,5.8,7.9,5.4c0,0,0,0,0-0.1C8,4.9,8.4,4.6,8.9,4.7c0,0,0.1,0,0.1,0c0.4,0,0.6,0.3,0.6,0.7
		c0,0,0,0,0,0.1c0,0.4-0.3,0.6-0.7,0.6C8.8,6.1,8.8,6.1,8.7,6.1z"/>
	<path class="st0" d="M5.5,5.4c0,0.4-0.2,0.7-0.6,0.7c0,0-0.1,0-0.1,0c-0.4,0-0.8-0.3-0.8-0.7C4,4.9,4.4,4.6,4.8,4.7
		C5.2,4.7,5.5,4.9,5.5,5.4C5.5,5.3,5.5,5.4,5.5,5.4z"/>
	<path class="st0" d="M10.6,9.9c-0.3,0-0.6-0.2-0.6-0.6c0-0.3,0.3-0.6,0.6-0.6c0.3,0,0.6,0.2,0.7,0.6C11.3,9.7,11.1,9.9,10.6,9.9z"
		/>
	<path class="st0" d="M13.7,9.9c-0.3-0.1-0.4-0.3-0.5-0.6c0-0.3,0.3-0.6,0.6-0.6c0.3,0,0.6,0.2,0.7,0.6C14.5,9.7,14.2,10,13.7,9.9
		C13.8,9.9,13.8,9.9,13.7,9.9z"/>
</g>
</svg>
