<?xml version="1.0" encoding="utf-8"?>
<!-- Generator: Adobe Illustrator 22.1.0, SVG Export Plug-In . SVG Version: 6.00 Build 0)  -->
<svg version="1.1" id="图层_1" xmlns="http://www.w3.org/2000/svg" xmlns:xlink="http://www.w3.org/1999/xlink" x="0px" y="0px"
	 width="18px" height="18px" viewBox="0 0 18 18" style="enable-background:new 0 0 18 18;" xml:space="preserve">
<path d="M12.6,1.1c0.1,1.3,1,2.2,2.1,2.7c0.5,0.2,1.1,0.4,1.7,0.6c0,0.9,0,1.9,0,2.9c-1.4,0.1-2.6-0.2-3.9-1c0,1.9,0,3.6,0,5.3
	c0,0.6-0.1,1.2-0.2,1.7c-0.7,2.7-3.4,4.3-6.1,3.7c-2.7-0.5-4.6-3.1-4.3-5.8c0.3-2.7,2.7-4.8,5.4-4.7c0.6,0,0.8,0.1,0.8,0.8
	C8,8,8,8.7,8,9.5c-0.6,0-1.1-0.1-1.6,0C5.3,9.7,4.5,11,4.7,12.1c0.2,1.2,1.2,2.1,2.4,2c1.2,0,2.3-1,2.3-2.2c0-3.6,0-7.1,0-10.7
	c0-0.1,0-0.1-0.1-0.2C10.4,1.1,11.5,1.1,12.6,1.1z"/>
</svg>
