<?xml version="1.0" encoding="utf-8"?>
<!-- Generator: Adobe Illustrator 22.1.0, SVG Export Plug-In . SVG Version: 6.00 Build 0)  -->
<svg version="1.1" id="图层_1" xmlns="http://www.w3.org/2000/svg" xmlns:xlink="http://www.w3.org/1999/xlink" x="0px" y="0px"
	 width="54.8px" height="64px" viewBox="0 0 54.8 64" style="enable-background:new 0 0 54.8 64;" xml:space="preserve">
<g>
	<path d="M41.4,7.5h-28C6.5,7.5,0.9,13.1,0.9,20v36c0,0.3,0.2,0.5,0.5,0.5h10c0.3,0,0.5-0.2,0.5-0.5v-1.5h31V56
		c0,0.3,0.2,0.5,0.5,0.5h10c0.3,0,0.5-0.2,0.5-0.5V20C53.9,13.1,48.3,7.5,41.4,7.5z M25.1,8.5h13.5L27.4,28.9L16.3,8.5
		C16.3,8.5,25.1,8.5,25.1,8.5z M10.9,55.5h-9V20c0-6.3,5.2-11.5,11.5-11.5h1.7l11.8,21.6v23.4h-15V24c0-0.3-0.2-0.5-0.5-0.5
		c-0.3,0-0.5,0.2-0.5,0.5C10.9,24,10.9,55.5,10.9,55.5z M52.9,55.5h-9V24c0-0.3-0.2-0.5-0.5-0.5s-0.5,0.2-0.5,0.5v29.5h-15V30.1
		L39.7,8.5h1.7c6.3,0,11.5,5.2,11.5,11.5C52.9,20,52.9,55.5,52.9,55.5z"/>
	<path d="M39.4,29.5h-6c-0.3,0-0.5,0.2-0.5,0.5s0.2,0.5,0.5,0.5h6c0.3,0,0.5-0.2,0.5-0.5S39.7,29.5,39.4,29.5z"/>
</g>
</svg>
