<?xml version="1.0" encoding="utf-8"?>
<!-- Generator: Adobe Illustrator 22.1.0, SVG Export Plug-In . SVG Version: 6.00 Build 0)  -->
<svg version="1.1" id="图层_1" xmlns="http://www.w3.org/2000/svg" xmlns:xlink="http://www.w3.org/1999/xlink" x="0px" y="0px"
	 width="35px" height="18px" viewBox="0 0 35 18" style="enable-background:new 0 0 35 18;" xml:space="preserve">
<style type="text/css">
	.st0{fill:#E60012;stroke:#FFFFFF;stroke-width:0.7;stroke-miterlimit:10;}
</style>
<title>icon</title>
<g>
	<path class="st0" d="M29.5,12.9h2.1c0-0.8,0-1.6,0-2.3s-0.3-0.5-0.7-0.5h-2.6c-0.3,0-0.3,0-0.3,0.4v3.9c0,0.2,0,0.3,0,0.5h-2
		c0,0-0.2-0.2-0.2-0.3v-3.9c0-0.5,0-0.5-0.6-0.5h-1.6c0-0.7,0-1.3,0-2c0,0,0.2-0.2,0.3-0.2c0.6,0,1.2,0,1.8,0V6.2h-1.4v-2
		c0,0,0.2-0.2,0.3-0.2h1.1c0.1-0.7,0.1-0.7,0.9-0.7h0.9c0.4,0,0.4,0,0.4,0.4s0,0.2,0,0.3h0.8c1.3,0,2.4,1,2.4,2.3c0,0.1,0,0.1,0,0.2
		c0,0.5,0,1,0,1.4L32,8c0.9,0.1,1.6,1,1.6,1.9c0,1,0,2.1,0,3c0,0.8-0.5,1.4-1.2,1.7c-0.9,0.4-2,0.1-2.7-0.6c-0.2-0.3-0.3-0.7-0.4-1
		L29.5,12.9z M28,6.9L28,6.9c-0.1,0.2-0.1,0.4-0.1,0.6c0,0,0,0.2,0.2,0.2C28.8,8,29,7.8,29,7.1c0-0.2,0-0.4,0-0.7
		c0-0.1-0.1-0.2-0.2-0.3c-0.6-0.2-0.9,0-0.9,0.6L28,6.9z"/>
	<path class="st0" d="M23.7,12.6v1.9c0,0.3-0.2,0.2-0.4,0.2H16l1-2.1c0,0,0.3,0,0.4,0c0.5,0,1,0,1.5,0c0.2,0,0.4,0,0.4-0.3
		c0-2,0-3.9,0-6c0-0.2-0.1-0.3-0.3-0.3c-0.3,0-0.6,0-0.8,0c0,0-0.3,0-0.3-0.2c0-0.7,0-1.3,0-2h4.7C22.9,4,23,4,23,4.4
		c0,0.5,0,1,0,1.5c0,0.2,0,0.3-0.3,0.3h-0.9c-0.2,0-0.3,0-0.3,0.3v6c0,0.2,0,0.3,0.3,0.3S23,12.6,23.7,12.6z"/>
	<path class="st0" d="M4,12.9h1.4V3.7c0-0.4,0-0.5,0.5-0.5h1.4c0.2,0,0.3,0,0.3,0.4c0,3,0,6.2,0,9.4c0.1,1-0.6,1.8-1.6,1.9
		c-0.2,0-0.3,0-0.5,0C4.6,14.7,3.9,13.9,4,12.9z"/>
	<path class="st0" d="M17,10.1c-0.3,0.6-0.6,1.2-0.8,1.7c-0.1,0-0.2,0-0.3,0c-0.7,0-1.3,0-2,0s-0.9-0.3-0.8-1
		c0.1-0.7,0.6-1.3,0.9-1.9l0.3-0.6c-0.4,0-0.7,0-1,0c-0.9,0-1.2-0.5-0.9-1.3c0.4-0.8,1.1-2.4,1.7-3.6c0.1-0.1,0.2-0.2,0.3-0.2h1.9
		c0,0.3-0.2,0.5-0.3,0.7c-0.1,0.2-0.7,1.3-1,2c-0.1,0.2-0.1,0.3,0,0.5C15.3,6,15.7,6.2,16,6.2h1.5c0,0.2,0,0.3-0.2,0.4l-1.5,3
		c-0.2,0.4,0,0.6,0.4,0.6L17,10.1z"/>
	<path class="st0" d="M2.2,13.8C1.8,13,1.4,12.3,1,11.6c0-0.1,0-0.2,0-0.3c0.1-1.1,0.3-2.2,0.4-3.4c0-0.5,0-1,0-1.5s0.2-0.2,0.4-0.2
		c0.6,0,1.1,0,1.7,0c0.2,0,0.4,0,0.4,0.2c-0.3,1.7-0.5,3.4-0.7,5.1C3.2,12.4,2.8,13.2,2.2,13.8z"/>
	<path class="st0" d="M10.5,13.8c-0.5-0.5-0.8-1.2-1-1.9c-0.2-0.7-0.3-1.4-0.4-2.2c0-1.1-0.2-2.2-0.3-3.3V6.2c0.7,0,1.3,0,2,0
		c0,0,0.2,0.2,0.2,0.3c0,1.3,0.2,2.7,0.3,4c0,0.1,0,0.3,0,0.4c0.2,0.4,0.2,0.9,0,1.3C11,12.6,10.8,13.2,10.5,13.8z"/>
	<path class="st0" d="M16.1,12.6c-0.4,0.7-0.7,1.4-1,2c0,0.1-0.1,0.1-0.2,0.1h-2.7c-0.2,0-0.3,0-0.5,0l1.1-2.1c0,0,0,0,0.2,0l3,0.1
		L16.1,12.6z"/>
	<path class="st0" d="M31.5,5.4c0-0.2,0-0.4,0-0.6c0.1-0.7,0.6-1.1,1.3-1.1c0.7,0.1,1.1,0.6,1.1,1.3c0,0.5-0.4,1-0.9,1.1
		c-0.4,0-0.7,0-1.1,0c0,0-0.2,0-0.2-0.2c0-0.2,0-0.3,0-0.5H31.5z"/>
</g>
</svg>
