<?xml version="1.0" encoding="utf-8"?>
<!-- Generator: Adobe Illustrator 22.1.0, SVG Export Plug-In . SVG Version: 6.00 Build 0)  -->
<svg version="1.1" id="Layer_1" xmlns="http://www.w3.org/2000/svg" xmlns:xlink="http://www.w3.org/1999/xlink" x="0px" y="0px"
	 width="131.5px" height="32.9px" viewBox="0 0 131.5 32.9" style="enable-background:new 0 0 131.5 32.9;" xml:space="preserve">
<style type="text/css">
	.st0{fill:none;}
	.st1{fill:#FFFFFF;stroke:#FFFFFF;stroke-width:0.75;stroke-miterlimit:10;}
	.st2{clip-path:url(#SVGID_2_);}
	.st3{fill:#FFFFFF;stroke:#FFFFFF;stroke-width:0.25;stroke-miterlimit:10;}
	.st4{fill:#FFFFFF;stroke:#FFFFFF;stroke-width:0.5;stroke-miterlimit:10;}
</style>
<rect x="0.4" y="0.4" class="st0" width="26.5" height="31.8"/>
<g>
	<path class="st1" d="M13.6,32.2C6.3,32.2,0.4,26.3,0.4,19V0.4h26.5V19C26.9,26.2,20.9,32.2,13.6,32.2z M1.3,1.3V19
		c0,6.8,5.5,12.3,12.3,12.3S25.9,25.8,25.9,19V1.3H1.3z"/>
</g>
<rect x="0.4" y="0.4" class="st0" width="26.5" height="31.8"/>
<g>
	<polygon class="st1" points="14.6,0.7 15.3,1.3 1.2,15.6 0.7,14.8 	"/>
</g>
<g>
	<g>
		<defs>
			<rect id="SVGID_1_" x="0.4" y="0.4" width="26.5" height="31.8"/>
		</defs>
		<clipPath id="SVGID_2_">
			<use xlink:href="#SVGID_1_"  style="overflow:visible;"/>
		</clipPath>
		<g class="st2">
			<polygon class="st1" points="26.1,11.9 26.4,12.9 8.7,30.6 7.7,30.3 			"/>
		</g>
	</g>
</g>
<g>
	<g>
		<rect x="-2.6" y="12.3" transform="matrix(0.7078 -0.7064 0.7064 0.7078 -4.873 13.815)" class="st1" width="33.7" height="0.9"/>
	</g>
</g>
<path class="st3" d="M43.7,27.3h2.8l-0.1,0.2h-0.8l-1.3,4.9h1.2l-0.1,0.2h-2.9v-0.2h1l1.3-4.9h-1.1L43.7,27.3z"/>
<path class="st3" d="M49.3,27.4h0.6L49.5,29H50v0.3h-0.6l-0.6,2.3c-0.1,0.2-0.1,0.5-0.1,0.7s0.1,0.3,0.2,0.3c0.5,0,0.9-1,1-1.6h0.2
	c-0.2,0.9-0.6,1.8-1.1,1.8s-0.7-0.6-0.7-1c0-0.1,0.1-0.5,0.1-0.8l0.5-1.7h-0.6l0.1-0.3H49L49.3,27.4z"/>
<path class="st3" d="M53.3,29.3l-0.2-1.1L53,27.9c0-0.1,0-0.1,0-0.2c0-0.3,0.1-0.5,0.3-0.5s0.3,0.2,0.3,0.4c0,0.1,0,0.2,0,0.3
	L53.3,29.3C53.4,29.3,53.3,29.3,53.3,29.3z"/>
<path class="st3" d="M58.6,29.6c0,0.3-0.2,0.5-0.4,0.5s-0.4-0.2-0.4-0.3c0-0.5,0.4-0.4,0.4-0.5S58,29,57.6,29c-0.6,0-1,0.3-1,0.7
	c0,0.6,1,0.6,1.5,1.1c0.2,0.2,0.3,0.5,0.3,0.7c0,0.7-0.6,1.3-1.4,1.3c-0.8,0-1.1-0.5-1.1-0.9s0.3-0.5,0.5-0.5s0.4,0.2,0.4,0.4
	c0,0.1-0.1,0.3-0.3,0.4c-0.1,0.1-0.2,0-0.2,0.1c0,0.2,0.3,0.4,0.8,0.4c0.6,0,1-0.4,1-0.8c0-0.2-0.1-0.3-0.2-0.5
	c-0.3-0.3-0.8-0.4-1.2-0.7c-0.2-0.2-0.3-0.4-0.3-0.7c0-0.6,0.5-1.2,1.3-1.2C58.3,28.8,58.6,29.3,58.6,29.6z"/>
<path class="st3" d="M65.1,27.4h0.6L65.3,29h0.5v0.3h-0.6l-0.6,2.3c-0.1,0.2-0.1,0.5-0.1,0.7s0.1,0.3,0.2,0.3c0.5,0,0.9-1,1-1.6h0.2
	c-0.2,0.9-0.6,1.8-1.1,1.8s-0.7-0.6-0.7-1c0-0.1,0.1-0.5,0.1-0.8l0.5-1.7h-0.6l0.1-0.3h0.6L65.1,27.4z"/>
<path class="st3" d="M68,30.5c0.2-1.1,0.9-1.7,1.2-1.7c0.4,0,0.6,0.5,0.6,1c0,0.9-0.7,1.9-0.7,2.5c0,0.1,0,0.2,0.2,0.2
	c0.3,0,0.8-0.7,0.9-1.5h0.2c-0.1,0.7-0.6,1.6-1.1,1.6s-0.6-0.6-0.6-1c0-0.8,0.7-1.9,0.7-2.5c0-0.2-0.1-0.3-0.2-0.3
	c-0.2,0-0.9,0.5-1,1.5H68V30.5z M70.2,27.7c0,0.2-0.2,0.4-0.4,0.4c-0.2,0-0.4-0.2-0.4-0.4c0-0.2,0.2-0.4,0.4-0.4
	C70,27.3,70.2,27.4,70.2,27.7z"/>
<path class="st3" d="M72.5,30.6c0.3-1.2,0.7-1.8,1.1-1.8s0.5,0.4,0.5,0.9c0,0.2,0,0.5-0.1,0.8c0.4-1.1,0.8-1.7,1.4-1.7
	c0.4,0,0.6,0.4,0.6,1.1c0,0.2,0,0.4-0.1,0.7c0.5-1.3,1-1.8,1.5-1.8s0.7,0.5,0.7,1.1c0,0.9-0.7,1.9-0.7,2.4c0,0.1,0.1,0.2,0.2,0.2
	c0.2,0,0.7-0.5,1-1.5h0.1c-0.3,1-0.8,1.7-1.2,1.7c-0.4,0-0.6-0.4-0.6-1c0-0.8,0.7-1.8,0.7-2.4c0-0.2-0.1-0.4-0.3-0.4
	c-0.6,0-1.2,1-1.7,2.7l-0.3,1h-0.6l0.8-2.7c0.1-0.2,0.1-0.4,0.1-0.5c0-0.3-0.1-0.4-0.3-0.4c-0.8,0-1.4,2.1-1.5,2.6l-0.3,1.1h-0.6
	l0.8-2.8c0.1-0.2,0.1-0.5,0.1-0.6c0-0.2-0.1-0.3-0.2-0.3c-0.3,0-0.7,0.6-0.9,1.6C72.7,30.6,72.5,30.6,72.5,30.6z"/>
<path class="st3" d="M83.6,31.4c-0.4,0.9-1,1.4-1.6,1.4c-0.7,0-1.2-0.6-1.2-1.5c0-0.5,0.2-1.1,0.9-1.8c0.5-0.5,0.9-0.7,1.2-0.7
	c0.4,0,0.7,0.3,0.7,0.8c0,0.6-0.6,1.1-2.1,1.5c-0.1,0.4-0.2,0.7-0.2,0.8c0,0.4,0.3,0.7,0.6,0.7c0.5,0,1.1-0.4,1.4-1.2
	C83.3,31.4,83.6,31.4,83.6,31.4z M82.4,29.3c-0.4,0.4-0.6,1.1-0.8,1.7c0.5-0.1,0.9-0.3,1.3-0.7c0.2-0.2,0.5-0.6,0.5-0.9
	c0-0.2-0.1-0.4-0.4-0.4C82.8,29,82.6,29.1,82.4,29.3z"/>
<path class="st3" d="M90.1,27.4h0.6L90.3,29h0.5v0.3h-0.6l-0.6,2.3c-0.1,0.2-0.1,0.5-0.1,0.7s0.1,0.3,0.2,0.3c0.5,0,0.9-1,1-1.6h0.2
	c-0.2,0.9-0.6,1.8-1.1,1.8s-0.7-0.6-0.7-1c0-0.1,0.1-0.5,0.1-0.8l0.5-1.7h-0.6l0.1-0.3h0.6L90.1,27.4z"/>
<path class="st3" d="M93.1,31.2c0-0.5,0.1-1,0.7-1.6c0.3-0.3,0.8-0.7,1.3-0.7c0.8,0,1.2,1,1.2,1.7s-0.4,1.2-0.8,1.6
	c-0.3,0.3-0.8,0.6-1.2,0.6C93.4,32.8,93.1,31.6,93.1,31.2z M94.9,32.3c0.5-0.5,0.9-2.3,0.9-2.6c0-0.4-0.3-0.7-0.7-0.7
	c-0.4,0-0.7,0.4-0.9,0.7c-0.2,0.5-0.6,1.8-0.6,2.2c0,0.4,0.2,0.7,0.7,0.7C94.5,32.6,94.8,32.4,94.9,32.3z"/>
<path class="st3" d="M102.4,27.3c0.2,0,0.6,0,1-0.1l-0.7,2.5c0.3-0.6,0.7-0.9,1.1-0.9c0.7,0,1.1,1,1.1,1.6c0,0.7-0.3,1.2-0.8,1.7
	c-0.4,0.4-0.9,0.7-1.3,0.7c-0.7,0-1.1-0.6-1.1-1.4c0-0.1,0-0.3,0.2-0.9l0.7-2.5c0-0.1,0-0.2,0-0.2c0-0.1-0.1-0.2-0.5-0.2H102
	l0.1-0.2L102.4,27.3L102.4,27.3z M102.2,31.9c0,0.5,0.2,0.8,0.6,0.8c0.5,0,0.8-0.4,1.1-1c0.2-0.4,0.5-1.5,0.5-1.9s-0.2-0.7-0.5-0.7
	C102.8,29,102.2,31.2,102.2,31.9z"/>
<path class="st3" d="M107.6,27.3c0.3,0,1,0,1.3-0.1l-1.3,4.8c0,0.1-0.1,0.3-0.1,0.3c0,0.2,0.1,0.2,0.2,0.2c0.3,0,0.7-0.6,0.9-1.5
	h0.2c-0.2,1-0.6,1.6-1.1,1.6c-0.3,0-0.6-0.4-0.6-1c0-0.2,0-0.4,0.1-0.7l0.9-3.2v-0.1C108.1,27.5,108,27.4,107.6,27.3l-0.4,0.1
	l0.1-0.2h0.3V27.3z"/>
<path class="st3" d="M111,31.2c0-0.5,0.1-1,0.7-1.6c0.3-0.3,0.8-0.7,1.3-0.7c0.8,0,1.2,1,1.2,1.7s-0.4,1.2-0.8,1.6
	c-0.3,0.3-0.8,0.6-1.2,0.6C111.3,32.8,111,31.6,111,31.2z M112.8,32.3c0.5-0.5,0.9-2.3,0.9-2.6c0-0.4-0.3-0.7-0.7-0.7
	c-0.4,0-0.7,0.4-0.9,0.7c-0.2,0.5-0.6,1.8-0.6,2.2c0,0.4,0.2,0.7,0.7,0.7C112.5,32.6,112.7,32.4,112.8,32.3z"/>
<path class="st3" d="M116.4,31.2c0-0.5,0.1-1,0.7-1.6c0.3-0.3,0.8-0.7,1.3-0.7c0.8,0,1.2,1,1.2,1.7s-0.4,1.2-0.8,1.6
	c-0.3,0.3-0.8,0.6-1.2,0.6C116.7,32.8,116.4,31.6,116.4,31.2z M118.2,32.3c0.5-0.5,0.9-2.3,0.9-2.6c0-0.4-0.3-0.7-0.7-0.7
	c-0.4,0-0.7,0.4-0.9,0.7c-0.2,0.5-0.6,1.8-0.6,2.2c0,0.4,0.2,0.7,0.7,0.7C117.9,32.6,118.1,32.4,118.2,32.3z"/>
<path class="st3" d="M121.8,30.6c0.3-1.2,0.7-1.8,1.1-1.8s0.5,0.4,0.5,0.9c0,0.2,0,0.5-0.1,0.8c0.4-1.1,0.8-1.7,1.4-1.7
	c0.4,0,0.6,0.4,0.6,1.1c0,0.2,0,0.4-0.1,0.7c0.5-1.3,1-1.8,1.5-1.8s0.7,0.5,0.7,1.1c0,0.9-0.7,1.9-0.7,2.4c0,0.1,0.1,0.2,0.2,0.2
	c0.2,0,0.7-0.5,1-1.5h0.1c-0.3,1-0.8,1.7-1.2,1.7c-0.4,0-0.6-0.4-0.6-1c0-0.8,0.7-1.8,0.7-2.4c0-0.2-0.1-0.4-0.3-0.4
	c-0.6,0-1.2,1-1.7,2.7l-0.3,1H124l0.8-2.7c0.1-0.2,0.1-0.4,0.1-0.5c0-0.3-0.1-0.4-0.3-0.4c-0.8,0-1.4,2.1-1.5,2.6l-0.3,1.1h-0.6
	l0.8-2.8c0.1-0.2,0.1-0.5,0.1-0.6c0-0.2-0.1-0.3-0.2-0.3c-0.3,0-0.7,0.6-0.9,1.6C122,30.6,121.8,30.6,121.8,30.6z"/>
<path class="st3" d="M131,32.4c0,0.3-0.2,0.5-0.5,0.5s-0.5-0.2-0.5-0.5s0.2-0.5,0.5-0.5C130.8,31.9,131,32.1,131,32.4z"/>
<path class="st4" d="M60,2.8c0,0.2,0,0.3-0.2,0.5c-0.2,0.1-0.4,0.2-0.6,0.2l-3-0.1v1c0,0.2-0.1,0.3-0.2,0.5C55.9,5,55.8,5,55.5,5
	c-0.2,0-0.3,0-0.5-0.2c-0.2-0.1-0.2-0.3-0.2-0.5v-1l-4.2-0.1l-4.1,0.1v1c0,0.2-0.1,0.3-0.2,0.5C46.2,5,46,5,45.8,5s-0.4-0.1-0.5-0.2
	c-0.2-0.1-0.2-0.3-0.2-0.5v-1L42,3.4c-0.2,0-0.4-0.1-0.6-0.2c-0.1-0.1-0.2-0.3-0.2-0.5c0-0.4,0.2-0.6,0.6-0.6L45.1,2V1
	c0-0.2,0.1-0.3,0.2-0.5c0.2-0.1,0.3-0.2,0.5-0.2c0.5,0,0.7,0.2,0.7,0.6V2l4.1-0.1L54.8,2V1c0-0.2,0.1-0.3,0.2-0.5
	c0.2-0.1,0.3-0.2,0.5-0.2c0.5,0,0.7,0.2,0.7,0.6V2l3.1,0.2c0.2,0,0.4,0,0.5,0.1C60,2.4,60,2.5,60,2.8z M46.6,7.8
	c0,0.6-0.2,1.1-0.6,1.5v12.1c0,0.4-0.2,0.6-0.7,0.6c-0.2,0-0.4,0-0.5-0.1c-0.2-0.1-0.2-0.3-0.2-0.5V11.1c-0.7,1.1-1,2.1-1,3
	c0,0.4-0.2,0.6-0.7,0.6s-0.7-0.2-0.7-0.6c0-1.6,0.9-3.5,2.8-5.6c0-0.2,0.1-0.5,0.1-0.7S45,7.4,44.7,7.2l-1.6-0.9
	C43,6.2,42.8,6,42.8,5.9c0-0.2,0.1-0.5,0.4-0.6c0.2-0.2,0.5-0.2,0.7,0L45.5,6C46.3,6.5,46.6,7.1,46.6,7.8z M59.2,20.1
	c0,0.2-0.1,0.4-0.2,0.5c-0.2,0.1-0.3,0.1-0.5,0.1h-5.8c-0.8,0-1.5-0.2-2-0.7c-0.6-0.5-0.8-1.1-0.8-1.9v-11c0-0.5,0.2-0.7,0.7-0.7
	c0.2,0,0.4,0.1,0.5,0.2c0.2,0.1,0.2,0.3,0.2,0.6v6.4h3.5c0.7,0,1.2-0.2,1.7-0.5s0.7-0.7,0.7-1.3V7.1c0-0.4,0.2-0.6,0.7-0.6
	c0.2,0,0.4,0.1,0.5,0.2c0.2,0.1,0.2,0.3,0.2,0.5v4.5c0,1-0.4,1.8-1.2,2.3c-0.8,0.6-1.7,0.8-2.7,0.8h-3.5v3.3c0,0.4,0.1,0.7,0.4,0.9
	c0.2,0.2,0.6,0.4,1,0.4h5.8c0.2,0,0.4,0.1,0.5,0.2C59.1,19.8,59.2,19.9,59.2,20.1z"/>
<path class="st4" d="M67.4,14.7c0.4,0,0.6,0.2,0.6,0.7c0,2.2-0.3,4.2-0.9,6.1C67,21.8,66.8,22,66.4,22c-0.2,0-0.4-0.1-0.6-0.2
	s-0.2-0.3-0.1-0.6c0.6-1.5,0.8-3.4,0.8-5.6c0-0.2,0.1-0.4,0.3-0.6C67,14.8,67.2,14.7,67.4,14.7z"/>
<path class="st4" d="M75.6,13.3c-0.2-0.1-0.3-0.2-0.5-0.2h-1.2V5.4h0.9c0.2,0.1,0.4,0,0.5-0.1c0.2-0.2,0.2-0.4,0.2-0.6
	c0-0.3-0.2-0.5-0.7-0.6h-0.9V0.9c0-0.4-0.2-0.6-0.7-0.6c-0.2,0-0.4,0.1-0.5,0.2c-0.2,0.1-0.2,0.3-0.2,0.5v3h-4.4V1
	c0-0.2-0.1-0.3-0.2-0.5c-0.2-0.1-0.3-0.2-0.5-0.2S67,0.4,66.9,0.5c-0.2,0.1-0.2,0.3-0.2,0.5v3h-1.1C65.2,4.1,65,4.3,65,4.6
	c0,0.5,0.2,0.7,0.7,0.7h1V13h-1.3c-0.2,0-0.4,0.1-0.5,0.2c-0.2,0.1-0.2,0.3-0.2,0.5s0.1,0.4,0.2,0.6c0.2,0.1,0.3,0.2,0.5,0.2
	c1.2-0.1,2.9-0.1,4.9-0.1c2.1,0,3.7,0,4.9,0.1c0.6,0,0.8-0.2,0.8-0.7C75.8,13.5,75.7,13.4,75.6,13.3z M72.4,13H68v-1.6h4.4V13z
	 M72.4,10H68V8.4c1.5-0.1,3-0.1,4.4,0V10z M72.4,7.1c-1.5,0-3,0-4.4,0V5.3h4.4V7.1z"/>
<path class="st4" d="M74.7,21.1v0.3c0,0.2-0.1,0.3-0.2,0.5C74.3,22,74.1,22,73.8,22c-0.2,0-0.5-0.2-0.6-0.5
	c-0.5-1.6-0.8-3.6-0.9-6.1c0-0.2,0.1-0.4,0.3-0.6c0.2-0.1,0.4-0.2,0.6-0.2c0.4,0,0.6,0.2,0.6,0.7C73.9,17.8,74.2,19.7,74.7,21.1z"/>
<path class="st4" d="M84.5,10.6c0-3.5,0.1-5.9,0.2-7.2c0.1-0.9-0.1-1.5-0.4-2s-0.9-0.8-1.8-0.9h-1.8H79c-0.9,0.1-1.5,0.4-1.8,0.9
	s-0.4,1.2-0.4,2c0.2,2,0.3,4.4,0.3,7.2c0,4.5-0.2,8.1-0.6,10.9c0,0.2,0.1,0.4,0.2,0.5c0.1,0.2,0.3,0.2,0.6,0.2
	c0.2,0,0.4-0.1,0.5-0.2c0.2-0.2,0.2-0.3,0.2-0.3c0.3-2.5,0.5-5.3,0.5-8.6c1.5-0.1,3-0.1,4.4,0c0,3.3,0.2,6.1,0.5,8.6
	c0.1,0.4,0.4,0.6,0.7,0.6c0.2,0,0.4-0.1,0.6-0.2c0.1-0.2,0.2-0.3,0.2-0.4v-0.1C84.6,19.2,84.5,15.6,84.5,10.6z M83,11.7
	c-1.4-0.1-2.9-0.1-4.4,0c0-1.7,0-3-0.1-3.9c1.5-0.1,3-0.1,4.4,0c0,0.4,0,1,0,1.8S82.9,11.1,83,11.7z M83.2,3.4l-0.2,3
	c-1.4-0.1-2.9-0.1-4.4,0c-0.1-1.7-0.2-2.9-0.2-3.5c0-0.7,0.2-1,0.7-1.1h1.7h1.6c0.6,0.1,0.8,0.4,0.8,1.1V3.4z"/>
<path class="st4" d="M131.3,20.8c0,0.2-0.1,0.3-0.2,0.5c-0.2,0.1-0.3,0.2-0.5,0.2c-2.8-0.2-5.5-0.3-8.1-0.3c-2.7,0-5.3,0.1-8.1,0.3
	c-0.2,0-0.4-0.1-0.6-0.2c-0.1-0.1-0.2-0.3-0.2-0.5c0-0.5,0.2-0.7,0.6-0.7c2.5-0.1,5-0.2,7.4-0.2v-4.4c-1.2,0-3.2,0.1-5.9,0.2
	c-0.2,0-0.4-0.1-0.6-0.2c-0.1-0.2-0.2-0.3-0.2-0.5c0-0.1,0.1-0.3,0.2-0.4c0.1-0.2,0.3-0.2,0.5-0.2c2.8-0.1,4.8-0.2,6-0.2v-3.1h-3.5
	c-0.6,0-1-0.2-1.4-0.6c-0.4-0.4-0.6-0.8-0.6-1.3c0-0.4,0.1-0.8,0.4-1.1l4.1-5.9l-5.1,0.2c-0.5,0-0.7-0.2-0.7-0.7
	c0-0.1,0.1-0.3,0.2-0.4c0.1-0.2,0.3-0.2,0.5-0.2c3.2-0.1,5.6-0.2,7-0.2c1.5,0,3.8,0.1,7,0.2c0.2,0,0.4,0.1,0.5,0.2
	c0.2,0.2,0.2,0.3,0.2,0.4c0,0.5-0.3,0.7-0.8,0.7l-5-0.2l4.1,5.9c0.2,0.3,0.4,0.7,0.4,1.1c0,0.6-0.2,1-0.6,1.3
	c-0.4,0.3-0.9,0.5-1.5,0.5h-3.5v3.1c1.3,0,3.3,0.1,6,0.2c0.2,0,0.4,0.1,0.5,0.2c0.2,0.2,0.2,0.3,0.2,0.4c0,0.2-0.1,0.4-0.2,0.5
	c-0.2,0.2-0.3,0.2-0.5,0.2c-2.8-0.1-4.8-0.2-6-0.2v4.4c2.5,0,4.9,0.1,7.4,0.2c0.2,0,0.4,0.1,0.5,0.2
	C131.2,20.4,131.3,20.6,131.3,20.8z M117.6,9.3c0,0.3,0.2,0.5,0.6,0.5h8.5c0.3,0,0.5-0.1,0.6-0.3s0.1-0.4,0-0.6l-4.4-6.1
	c-0.1-0.2-0.3-0.3-0.4-0.3c-0.2,0-0.3,0.1-0.4,0.3l-4.4,6.1C117.6,8.9,117.6,9.1,117.6,9.3z"/>
<path class="st4" d="M108.7,4.2c0,0.2-0.1,0.4-0.2,0.6C108.4,5,108.2,5,107.9,5l-8.1-1l-1.1,0.2l-0.1,0.1v15.6
	c0,0.4,0.1,0.6,0.4,0.8c0.2,0.2,0.6,0.3,1,0.3l3.4-0.8h0.2c0.2,0,0.4,0.1,0.5,0.2c0.2,0.2,0.2,0.3,0.2,0.5c0,0.3-0.2,0.5-0.6,0.6
	l-3.4,0.6c-0.9,0.2-1.6,0-2.2-0.4c-0.6-0.5-0.9-1.1-0.9-1.9V5.3l-0.5,0.4c-2,1.4-3.1,3.2-3.4,5.3c-0.6,3.4-1,6.9-1.2,10.5
	c0,0.2-0.1,0.4-0.2,0.5c-0.2,0.1-0.3,0.1-0.5,0.1c-0.2,0-0.4,0-0.5-0.1c-0.2-0.1-0.2-0.3-0.2-0.5c0.2-3.8,0.6-7.3,1.2-10.7
	c0.4-2.5,1.7-4.6,4-6.2L96,4.4L91.7,5h-0.1c-0.2,0-0.4-0.1-0.5-0.2c-0.2-0.1-0.2-0.3-0.2-0.5V4.2c0-0.3,0.2-0.5,0.6-0.6l7.6-0.9V1.5
	c0-0.4,0.2-0.6,0.7-0.6c0.5,0,0.7,0.2,0.7,0.6v1.2l7.5,0.9C108.5,3.7,108.7,3.9,108.7,4.2z M108.6,21.1v0.2c0,0.2-0.1,0.4-0.2,0.6
	c-0.2,0.1-0.3,0.2-0.5,0.2c-0.4,0-0.6-0.2-0.7-0.6c-0.7-2.8-2.2-5.9-4.6-9.4c-0.4-0.6-0.6-1.2-0.6-1.8c0-1.2,0.6-2.1,1.7-2.7l3-1.6
	l0.4-0.2c0.4,0,0.6,0.2,0.7,0.5c0.1,0.3,0,0.6-0.4,0.8l-3,1.7c-0.7,0.4-1,0.9-1,1.5c0,0.2,0.1,0.6,0.4,1
	C106.2,14.8,107.8,18.1,108.6,21.1z"/>
</svg>
