<?xml version="1.0" encoding="utf-8"?>
<!-- Generator: Adobe Illustrator 22.1.0, SVG Export Plug-In . SVG Version: 6.00 Build 0)  -->
<svg version="1.1" id="Layer_1" xmlns="http://www.w3.org/2000/svg" xmlns:xlink="http://www.w3.org/1999/xlink" x="0px" y="0px"
	 width="213.3px" height="53.7px" viewBox="0 0 213.3 53.7" style="enable-background:new 0 0 213.3 53.7;" xml:space="preserve">
<style type="text/css">
	.st0{fill:none;}
	.st1{stroke:#000000;stroke-width:0.75;stroke-miterlimit:10;}
	.st2{clip-path:url(#SVGID_2_);}
	.st3{clip-path:url(#SVGID_4_);}
	.st4{stroke:#020202;stroke-width:0.25;stroke-miterlimit:10;}
	.st5{stroke:#000000;stroke-width:0.5;stroke-miterlimit:10;}
	.st6{font-family:'inpin-zhuanyujian';}
	.st7{font-size:38.5004px;}
</style>
<rect x="1" y="1" class="st0" width="42.9" height="51.5"/>
<g>
	<path class="st1" d="M22.4,52.5C10.6,52.5,1,42.9,1,31.1V1h42.9v30.1C43.9,42.9,34.3,52.5,22.4,52.5z M2.5,2.5v28.6
		c0,11,9,20,20,20s20-9,20-20V2.5H2.5z"/>
</g>
<rect x="1" y="1" class="st0" width="42.9" height="51.5"/>
<g>
	<polygon class="st1" points="24.1,1.5 25.1,2.5 2.3,25.7 1.5,24.4 	"/>
</g>
<g>
	<g>
		<defs>
			<rect id="SVGID_1_" x="1" y="1" width="42.9" height="51.5"/>
		</defs>
		<clipPath id="SVGID_2_">
			<use xlink:href="#SVGID_1_"  style="overflow:visible;"/>
		</clipPath>
		<g class="st2">
			<polygon class="st1" points="42.6,19.7 43.1,21.3 14.4,49.9 12.9,49.4 			"/>
		</g>
	</g>
</g>
<g>
	<g>
		<defs>
			<rect id="SVGID_3_" x="1" y="1" width="42.9" height="51.5"/>
		</defs>
		<clipPath id="SVGID_4_">
			<use xlink:href="#SVGID_3_"  style="overflow:visible;"/>
		</clipPath>
		<g class="st3">
			
				<rect x="-3.7" y="20.3" transform="matrix(0.7078 -0.7064 0.7064 0.7078 -7.9652 22.8096)" class="st1" width="54.6" height="1.5"/>
		</g>
	</g>
</g>
<path class="st4" d="M71.2,44.6h4.5L75.6,45h-1.4l-2.1,8H74l-0.1,0.3h-4.7l0.1-0.3h1.6l2.1-8h-1.8V44.6z"/>
<path class="st4" d="M80.2,44.7h1l-0.7,2.6h0.9v0.5h-1l-1,3.7c-0.1,0.4-0.2,0.9-0.2,1.2s0.1,0.6,0.3,0.6c0.8,0,1.4-1.6,1.6-2.6h0.2
	c-0.3,1.5-1,2.9-1.8,2.9s-1.1-1-1.1-1.7c0-0.2,0.1-0.8,0.2-1.3l0.7-2.8h-0.9l0.1-0.5h0.9L80.2,44.7z"/>
<path class="st4" d="M86.8,47.9l-0.3-1.7l-0.1-0.6c0-0.1,0-0.2,0-0.3c0-0.5,0.2-0.8,0.5-0.8s0.5,0.2,0.5,0.7c0,0.1,0,0.2,0,0.4
	L87,47.9H86.8z"/>
<path class="st4" d="M95.3,48.3c0,0.4-0.3,0.9-0.7,0.9c-0.3,0-0.6-0.3-0.6-0.6c0-0.8,0.7-0.7,0.7-0.8c0-0.2-0.4-0.5-1-0.5
	c-1,0-1.6,0.6-1.6,1.2c0,0.9,1.6,1,2.4,1.8c0.4,0.3,0.4,0.7,0.4,1.1c0,1.1-1,2-2.3,2s-1.9-0.8-1.9-1.4c0-0.6,0.4-0.9,0.7-0.9
	c0.3,0,0.6,0.3,0.6,0.6c0,0.2-0.2,0.5-0.4,0.6c-0.2,0.1-0.4,0-0.4,0.2s0.6,0.6,1.3,0.6c1,0,1.7-0.6,1.7-1.2c0-0.3-0.1-0.5-0.3-0.7
	c-0.4-0.4-1.4-0.6-1.9-1.1c-0.3-0.3-0.4-0.6-0.4-1.1c0-1,0.8-1.9,2.1-1.9C94.9,47.1,95.3,47.8,95.3,48.3z"/>
<path class="st4" d="M105.9,44.7h1l-0.7,2.6h0.9v0.5h-1l-1,3.7c-0.1,0.4-0.2,0.9-0.2,1.2s0.1,0.6,0.3,0.6c0.8,0,1.4-1.6,1.6-2.6h0.2
	c-0.3,1.5-1,2.9-1.8,2.9s-1.1-1-1.1-1.7c0-0.2,0.1-0.8,0.2-1.3l0.7-2.8h-0.9l0.1-0.5h0.9L105.9,44.7z"/>
<path class="st4" d="M110.6,49.8c0.3-1.8,1.4-2.7,1.9-2.7c0.6,0,1,0.7,1,1.6c0,1.4-1.2,3.1-1.2,4c0,0.2,0.1,0.4,0.4,0.4
	c0.5,0,1.3-1.2,1.5-2.4h0.2c-0.1,1.2-1,2.6-1.8,2.6c-0.7,0-0.9-1-0.9-1.6c0-1.3,1.2-3,1.2-4c0-0.2-0.1-0.4-0.3-0.4
	c-0.4,0-1.4,0.8-1.6,2.4h-0.4V49.8z M114.1,45.2c0,0.4-0.3,0.7-0.7,0.7c-0.4,0-0.7-0.3-0.7-0.7s0.3-0.7,0.7-0.7
	C113.8,44.5,114.1,44.8,114.1,45.2z"/>
<path class="st4" d="M117.8,50c0.4-2,1.2-2.9,1.7-2.9c0.6,0,0.8,0.6,0.8,1.4c0,0.4,0,0.9-0.1,1.3c0.7-1.7,1.3-2.8,2.3-2.8
	c0.6,0,1,0.6,1,1.8c0,0.3,0,0.7-0.1,1.1c0.8-2.1,1.7-2.9,2.4-2.9c0.7,0,1.2,0.8,1.2,1.7c0,1.4-1.2,3-1.2,3.9c0,0.2,0.1,0.4,0.3,0.4
	c0.4,0,1.2-0.8,1.7-2.4h0.2c-0.4,1.7-1.3,2.7-1.9,2.7s-0.9-0.7-0.9-1.6c0-1.4,1.2-2.9,1.2-3.9c0-0.2-0.1-0.6-0.5-0.6
	c-0.9,0-1.9,1.6-2.7,4.3l-0.5,1.5h-1l1.2-4.4c0.1-0.3,0.1-0.6,0.1-0.8c0-0.5-0.2-0.7-0.5-0.7c-1.3,0-2.2,3.3-2.5,4.1l-0.5,1.8h-1
	l1.3-4.5c0.1-0.4,0.2-0.7,0.2-1s-0.1-0.5-0.4-0.5c-0.4,0-1.1,1-1.5,2.6h-0.3V50z"/>
<path class="st4" d="M135.8,51.3c-0.6,1.4-1.6,2.2-2.6,2.2c-1.1,0-1.9-1-1.9-2.4c0-0.8,0.3-1.7,1.5-2.8c0.8-0.8,1.4-1.1,1.9-1.1
	c0.6,0,1.2,0.5,1.2,1.2c0,1-0.9,1.7-3.4,2.4c-0.2,0.7-0.3,1.1-0.3,1.3c0,0.7,0.5,1.1,1,1.1c0.8,0,1.8-0.7,2.3-2L135.8,51.3
	L135.8,51.3z M133.9,47.8c-0.6,0.6-1,1.9-1.4,2.8c0.7-0.2,1.5-0.5,2-1.1c0.3-0.3,0.7-0.9,0.7-1.4c0-0.3-0.2-0.6-0.6-0.6
	C134.5,47.4,134.2,47.5,133.9,47.8z"/>
<path class="st4" d="M146.3,44.7h1l-0.7,2.6h0.9v0.5h-1l-1,3.7c-0.1,0.4-0.2,0.9-0.2,1.2s0.1,0.6,0.3,0.6c0.8,0,1.4-1.6,1.6-2.6h0.2
	c-0.3,1.5-1,2.9-1.8,2.9s-1.1-1-1.1-1.7c0-0.2,0.1-0.8,0.2-1.3l0.7-2.8h-0.9l0.1-0.5h0.9L146.3,44.7z"/>
<path class="st4" d="M151.1,50.8c0-0.8,0.2-1.6,1.2-2.6c0.5-0.5,1.3-1.2,2.1-1.2c1.3,0,1.9,1.7,1.9,2.7c0,1.1-0.7,2-1.3,2.6
	c-0.5,0.5-1.3,1-2,1C151.7,53.4,151.1,51.6,151.1,50.8z M154.1,52.7c0.7-0.7,1.4-3.7,1.4-4.2c0-0.7-0.4-1.1-1.1-1.1
	c-0.7,0-1.2,0.6-1.5,1.2c-0.4,0.8-1,2.9-1,3.5c0,0.7,0.4,1.1,1.1,1.1C153.5,53.2,153.9,52.9,154.1,52.7z"/>
<path class="st4" d="M166.2,44.6c0.3,0,0.9,0,1.6-0.1l-1.1,4.1c0.6-0.9,1.1-1.4,1.9-1.4c1.1,0,1.7,1.6,1.7,2.5c0,1.1-0.6,2-1.3,2.7
	s-1.4,1.1-2.1,1.1c-1.1,0-1.8-0.9-1.8-2.2c0-0.2,0-0.6,0.3-1.5l1.1-4.1c0-0.1,0.1-0.2,0.1-0.3c0-0.2-0.2-0.4-0.8-0.4h-0.3l0.1-0.3
	L166.2,44.6L166.2,44.6z M165.9,52c0,0.7,0.4,1.2,1,1.2c0.8,0,1.3-0.7,1.7-1.6c0.3-0.7,0.8-2.5,0.8-3.1c0-0.7-0.4-1.1-0.9-1.1
	C166.9,47.4,165.9,50.9,165.9,52z"/>
<path class="st4" d="M174.7,44.6c0.4,0,1.5,0,2.1-0.1l-2.1,7.7c-0.1,0.2-0.1,0.4-0.1,0.6c0,0.3,0.1,0.4,0.3,0.4
	c0.5,0,1.1-0.9,1.5-2.4h0.2c-0.4,1.6-1,2.7-1.8,2.7c-0.5,0-0.9-0.6-0.9-1.5c0-0.3,0-0.7,0.2-1.1l1.4-5.2c0-0.1,0-0.1,0-0.2
	c0-0.2-0.2-0.4-0.6-0.4h-0.8l0.1-0.3h0.5V44.6z"/>
<path class="st4" d="M180.1,50.8c0-0.8,0.2-1.6,1.2-2.6c0.5-0.5,1.3-1.2,2.1-1.2c1.3,0,1.9,1.7,1.9,2.7c0,1.1-0.7,2-1.3,2.6
	c-0.5,0.5-1.3,1-2,1C180.7,53.4,180.1,51.6,180.1,50.8z M183.1,52.7c0.7-0.7,1.4-3.7,1.4-4.2c0-0.7-0.4-1.1-1.1-1.1
	c-0.7,0-1.2,0.6-1.5,1.2c-0.4,0.8-1,2.9-1,3.5c0,0.7,0.4,1.1,1.1,1.1C182.5,53.2,182.9,52.9,183.1,52.7z"/>
<path class="st4" d="M188.9,50.8c0-0.8,0.2-1.6,1.2-2.6c0.5-0.5,1.3-1.2,2.1-1.2c1.3,0,1.9,1.7,1.9,2.7c0,1.1-0.7,2-1.3,2.6
	c-0.5,0.5-1.3,1-2,1C189.5,53.4,188.9,51.6,188.9,50.8z M191.9,52.7c0.7-0.7,1.4-3.7,1.4-4.2c0-0.7-0.4-1.1-1.1-1.1
	c-0.7,0-1.2,0.6-1.5,1.2c-0.4,0.8-1,2.9-1,3.5c0,0.7,0.4,1.1,1.1,1.1C191.3,53.2,191.7,52.9,191.9,52.7z"/>
<path class="st4" d="M197.6,50c0.4-2,1.2-2.9,1.7-2.9c0.6,0,0.8,0.6,0.8,1.4c0,0.4,0,0.9-0.1,1.3c0.7-1.7,1.3-2.8,2.3-2.8
	c0.6,0,1,0.6,1,1.8c0,0.3,0,0.7-0.1,1.1c0.8-2.1,1.7-2.9,2.4-2.9s1.2,0.8,1.2,1.7c0,1.4-1.2,3-1.2,3.9c0,0.2,0.1,0.4,0.3,0.4
	c0.4,0,1.2-0.8,1.7-2.4h0.2c-0.4,1.7-1.3,2.7-1.9,2.7c-0.6,0-0.9-0.7-0.9-1.6c0-1.4,1.2-2.9,1.2-3.9c0-0.2-0.1-0.6-0.5-0.6
	c-0.9,0-1.9,1.6-2.7,4.3l-0.5,1.5h-1l1.2-4.4c0.1-0.3,0.1-0.6,0.1-0.8c0-0.5-0.2-0.7-0.5-0.7c-1.3,0-2.2,3.3-2.5,4.1l-0.5,1.8h-1
	l1.3-4.5c0.1-0.4,0.2-0.7,0.2-1s-0.1-0.5-0.4-0.5c-0.4,0-1.1,1-1.5,2.6h-0.3V50z"/>
<path class="st4" d="M212.6,52.8c0,0.4-0.3,0.7-0.7,0.7s-0.7-0.3-0.7-0.7s0.3-0.7,0.7-0.7S212.6,52.4,212.6,52.8z"/>
<path class="st5" d="M97.6,4.9c0,0.3-0.1,0.6-0.4,0.8C97,5.9,96.7,6,96.3,6l-4.8-0.2v1.6c0,0.3-0.1,0.6-0.3,0.7
	c-0.2,0.2-0.5,0.3-0.9,0.3c-0.3,0-0.6-0.1-0.8-0.3c-0.3-0.2-0.4-0.4-0.4-0.7V5.8l-6.7-0.1l-6.6,0.1v1.6c0,0.3-0.1,0.6-0.3,0.7
	c-0.2,0.2-0.5,0.3-0.9,0.3c-0.3,0-0.6-0.1-0.8-0.3c-0.3-0.2-0.4-0.4-0.4-0.7V5.8l-5,0.2c-0.4,0-0.7-0.1-0.9-0.3
	c-0.2-0.2-0.3-0.5-0.3-0.8c0-0.7,0.3-1,1-1l5.1-0.3V2.1c0-0.3,0.1-0.5,0.4-0.7C74,1.1,74.3,1,74.6,1c0.8,0,1.2,0.4,1.2,1v1.5
	l6.6-0.1l6.7,0.1V2.1c0-0.3,0.1-0.5,0.4-0.7C89.7,1.1,90,1,90.3,1c0.8,0,1.2,0.4,1.2,1v1.5l4.9,0.3c0.3,0,0.6,0.1,0.8,0.2
	C97.5,4.2,97.6,4.5,97.6,4.9z M75.9,13c0,0.9-0.4,1.7-1,2.4V35c0,0.7-0.4,1-1.2,1c-0.3,0-0.6-0.1-0.8-0.2c-0.3-0.1-0.4-0.4-0.4-0.8
	V18.4c-1.1,1.8-1.6,3.4-1.6,4.8c0,0.6-0.4,0.9-1.2,0.9c-0.8,0-1.2-0.3-1.2-1c0-2.6,1.5-5.6,4.5-9c0.4-0.3,0.6-0.6,0.6-1
	s-0.2-0.7-0.6-0.9l-2.5-1.5c-0.4-0.2-0.6-0.4-0.6-0.7c0-0.4,0.2-0.7,0.6-1s0.8-0.3,1.2,0l2.5,1.3C75.3,10.9,75.9,11.8,75.9,13z
	 M96.3,33c0,0.4-0.1,0.7-0.4,0.8S95.4,34,95.1,34h-9.4c-1.3,0-2.4-0.4-3.3-1.2c-1-0.8-1.4-1.8-1.4-3v-18c0-0.8,0.4-1.2,1.2-1.2
	c0.3,0,0.6,0.1,0.8,0.3c0.2,0.2,0.4,0.5,0.4,0.9v10.3h5.7c1.1,0,2-0.2,2.8-0.7c0.7-0.5,1.1-1.2,1.1-2.1V12c0-0.7,0.4-1,1.2-1
	c0.3,0,0.6,0.1,0.8,0.3c0.2,0.2,0.4,0.4,0.4,0.7v7.3c0,1.6-0.6,2.8-1.9,3.7c-1.3,0.9-2.7,1.3-4.4,1.3h-5.7v5.4
	c0,0.6,0.2,1.1,0.6,1.5s0.9,0.6,1.6,0.6H95c0.3,0,0.6,0.1,0.8,0.3C96.2,32.4,96.3,32.7,96.3,33z"/>
<path class="st5" d="M110.7,24.3c0.7,0,1,0.4,1,1.2c0,3.5-0.5,6.8-1.5,9.9c-0.1,0.4-0.4,0.6-1,0.6c-0.4,0-0.7-0.1-1-0.3
	s-0.3-0.5-0.2-1c0.9-2.5,1.3-5.5,1.3-9.1c0-0.4,0.2-0.7,0.5-0.9C110.1,24.4,110.4,24.3,110.7,24.3z"/>
<path class="st5" d="M124,21.9c-0.3-0.2-0.5-0.3-0.8-0.3h-1.9V9.1h1.5c0.3,0.1,0.6,0,0.8-0.2c0.2-0.2,0.4-0.6,0.4-1
	c0-0.5-0.4-0.8-1.2-1h-1.5v-5c0-0.7-0.4-1-1.2-1c-0.3,0-0.6,0.1-0.8,0.3c-0.3,0.2-0.4,0.5-0.4,0.8v4.8h-7.2V1.9
	c0-0.3-0.1-0.5-0.4-0.8c-0.3-0.2-0.5-0.3-0.8-0.3s-0.6,0.1-0.8,0.3c-0.3,0.2-0.4,0.5-0.4,0.8v4.9h-1.8c-0.7,0.2-1,0.6-1,1
	c0,0.8,0.4,1.2,1.2,1.2h1.6v12.4h-2.1c-0.3,0-0.6,0.1-0.8,0.3c-0.3,0.2-0.4,0.4-0.4,0.7c0,0.4,0.1,0.7,0.4,0.9
	c0.2,0.2,0.5,0.3,0.8,0.3c2-0.1,4.6-0.2,7.9-0.2c3.4,0,6,0.1,7.9,0.2c0.9,0,1.3-0.4,1.3-1.2C124.4,22.3,124.2,22.1,124,21.9z
	 M118.8,21.4h-7.2v-2.5h7.2V21.4z M118.8,16.6h-7.2v-2.5c2.4-0.1,4.8-0.1,7.2,0V16.6z M118.8,11.8c-2.4,0-4.8,0-7.2,0V9h7.2V11.8z"
	/>
<path class="st5" d="M122.6,34.6V35c0,0.3-0.1,0.5-0.4,0.7s-0.6,0.3-1,0.3s-0.7-0.3-1-0.7c-0.8-2.6-1.3-5.9-1.5-9.9
	c0-0.4,0.1-0.7,0.5-0.9c0.3-0.2,0.6-0.3,0.9-0.3c0.7,0,1,0.4,1,1.2C121.3,29.3,121.8,32.3,122.6,34.6z"/>
<path class="st5" d="M138.5,17.5c0-5.6,0.1-9.5,0.3-11.7c0.1-1.4-0.1-2.5-0.6-3.3s-1.4-1.3-2.8-1.5h-2.8h-2.8
	c-1.4,0.2-2.3,0.7-2.8,1.5s-0.7,1.9-0.6,3.3c0.3,3.2,0.5,7.1,0.5,11.7c0,7.3-0.3,13.2-0.9,17.7c0,0.3,0.1,0.6,0.3,0.8
	s0.5,0.4,0.9,0.4c0.3,0,0.6-0.1,0.8-0.4c0.2-0.3,0.4-0.4,0.4-0.5c0.5-4,0.7-8.6,0.7-13.9c2.4-0.1,4.8-0.1,7.2,0
	c0,5.3,0.2,9.9,0.7,13.9c0.2,0.6,0.6,0.9,1.2,0.9c0.4,0,0.7-0.1,0.9-0.4c0.2-0.3,0.3-0.5,0.3-0.7v-0.1
	C138.7,31.5,138.5,25.6,138.5,17.5z M136.1,19.3c-2.3-0.1-4.6-0.1-7,0c0-2.8-0.1-4.9-0.1-6.3c2.4-0.1,4.8-0.1,7.2,0
	c0,0.6,0,1.6-0.1,2.8C135.9,17.2,136,18.3,136.1,19.3z M136.4,5.8l-0.3,4.9c-2.3-0.1-4.7-0.1-7.2,0c-0.2-2.8-0.3-4.7-0.3-5.7
	c0-1.1,0.4-1.7,1.2-1.8h2.7h2.5c0.9,0.1,1.3,0.7,1.3,1.8v0.8H136.4z"/>
<path class="st5" d="M213,34.1c0,0.3-0.1,0.6-0.4,0.7c-0.3,0.2-0.5,0.3-0.8,0.3c-4.5-0.3-8.9-0.5-13.2-0.5s-8.6,0.1-13,0.5
	c-0.4,0-0.7-0.1-0.9-0.3s-0.3-0.5-0.3-0.7c0-0.8,0.3-1.2,1-1.2c4.1-0.2,8.1-0.3,12-0.3v-7c-2,0-5.2,0.1-9.6,0.3
	c-0.4,0-0.7-0.1-0.9-0.4c-0.2-0.2-0.3-0.5-0.3-0.8c0-0.2,0.1-0.4,0.3-0.7c0.2-0.2,0.4-0.4,0.7-0.4c4.6-0.2,7.8-0.3,9.7-0.3v-4.9
	h-5.7c-0.9,0-1.7-0.3-2.3-0.9c-0.7-0.6-1-1.3-1-2.1c0-0.7,0.2-1.3,0.6-1.8l6.6-9.6l-8.2,0.3c-0.8,0-1.2-0.4-1.2-1.2
	c0-0.2,0.1-0.4,0.3-0.7c0.2-0.2,0.5-0.4,0.7-0.4c5.2-0.2,9-0.3,11.4-0.3s6.2,0.1,11.4,0.3c0.3,0,0.6,0.1,0.8,0.4s0.4,0.5,0.4,0.7
	c0,0.8-0.4,1.2-1.3,1.2l-8-0.3l6.6,9.6c0.4,0.5,0.6,1.1,0.6,1.8c0,0.9-0.3,1.6-1,2.2s-1.5,0.8-2.5,0.8h-5.7v4.9
	c2.1,0,5.3,0.1,9.7,0.3c0.3,0,0.6,0.1,0.8,0.4s0.4,0.5,0.4,0.7c0,0.3-0.1,0.6-0.4,0.8c-0.3,0.3-0.5,0.4-0.8,0.4
	c-4.6-0.2-7.8-0.3-9.7-0.3v7c4,0,8,0.1,12,0.3c0.3,0,0.6,0.1,0.8,0.3C212.9,33.5,213,33.8,213,34.1z M190.8,15.4
	c0,0.5,0.3,0.7,0.9,0.7h13.8c0.5,0,0.8-0.1,1-0.4s0.1-0.6-0.1-1l-7-9.9c-0.2-0.3-0.4-0.4-0.7-0.4s-0.5,0.1-0.7,0.4l-7,9.9
	C190.9,14.9,190.8,15.1,190.8,15.4z"/>
<text transform="matrix(1 0 0 1 144.125 35.1211)" class="st5 st6 st7">衣</text>
</svg>
