<?xml version="1.0" encoding="utf-8"?>
<!-- Generator: Adobe Illustrator 22.1.0, SVG Export Plug-In . SVG Version: 6.00 Build 0)  -->
<svg version="1.1" id="Layer_1" xmlns="http://www.w3.org/2000/svg" xmlns:xlink="http://www.w3.org/1999/xlink" x="0px" y="0px"
	 width="220.1px" height="53.7px" viewBox="0 0 220.1 53.7" style="enable-background:new 0 0 220.1 53.7;" xml:space="preserve">
<style type="text/css">
	.st0{fill:none;}
	.st1{stroke:#000000;stroke-width:0.75;stroke-miterlimit:10;}
	.st2{clip-path:url(#SVGID_2_);}
	.st3{clip-path:url(#SVGID_4_);}
	.st4{stroke:#020202;stroke-width:0.25;stroke-miterlimit:10;}
	.st5{stroke:#000000;stroke-width:0.5;stroke-miterlimit:10;}
	.st6{font-family:'inpin-zhuanyujian';}
	.st7{font-size:38.5004px;}
	.st8{fill:none;stroke:#000000;stroke-width:0.5;stroke-miterlimit:10;}
</style>
<rect x="3.8" y="5.7" class="st0" width="51.5" height="42.9"/>
<g>
	<path class="st1" d="M55.3,27.2c0,11.8-9.6,21.4-21.4,21.4H3.8V5.7h30.1C45.7,5.7,55.3,15.3,55.3,27.2z M5.3,47.1h28.6
		c11,0,20-9,20-20s-9-20-20-20H5.3V47.1z"/>
</g>
<rect x="3.8" y="5.7" class="st0" width="51.5" height="42.9"/>
<g>
	<polygon class="st1" points="4.3,25.5 5.3,24.5 28.5,47.3 27.2,48.1 	"/>
</g>
<g>
	<g>
		<g>
			<defs>
				<rect id="SVGID_1_" x="3.8" y="5.7" width="51.5" height="42.9"/>
			</defs>
			<clipPath id="SVGID_2_">
				<use xlink:href="#SVGID_1_"  style="overflow:visible;"/>
			</clipPath>
			<g class="st2">
				<polygon class="st1" points="22.5,7 24.1,6.5 52.7,35.2 52.2,36.7 				"/>
			</g>
		</g>
	</g>
</g>
<g>
	<g>
		<g>
			<defs>
				<rect id="SVGID_3_" x="3.8" y="5.7" width="51.5" height="42.9"/>
			</defs>
			<clipPath id="SVGID_4_">
				<use xlink:href="#SVGID_3_"  style="overflow:visible;"/>
			</clipPath>
			<g class="st3">
				
					<rect x="23.1" y="-1.3" transform="matrix(0.7078 -0.7064 0.7064 0.7078 -11.4123 24.4437)" class="st1" width="1.5" height="54.6"/>
			</g>
		</g>
	</g>
</g>
<path class="st4" d="M73.9,44.6h4.5L78.3,45h-1.4l-2.1,8h1.9l-0.1,0.3h-4.7L72,53h1.6l2.1-8h-1.8V44.6z"/>
<path class="st4" d="M82.9,44.7h1l-0.7,2.6h0.9v0.5h-1l-1,3.7c-0.1,0.4-0.2,0.9-0.2,1.2s0.1,0.6,0.3,0.6c0.8,0,1.4-1.6,1.6-2.6H84
	c-0.3,1.5-1,2.9-1.8,2.9s-1.1-1-1.1-1.7c0-0.2,0.1-0.8,0.2-1.3l0.7-2.8h-0.9l0.1-0.5h0.9L82.9,44.7z"/>
<path class="st4" d="M89.5,47.9l-0.3-1.7l-0.1-0.6c0-0.1,0-0.2,0-0.3c0-0.5,0.2-0.8,0.5-0.8s0.5,0.2,0.5,0.7c0,0.1,0,0.2,0,0.4
	l-0.4,2.3H89.5z"/>
<path class="st4" d="M98,48.3c0,0.4-0.3,0.9-0.7,0.9c-0.3,0-0.6-0.3-0.6-0.6c0-0.8,0.7-0.7,0.7-0.8c0-0.2-0.4-0.5-1-0.5
	c-1,0-1.6,0.6-1.6,1.2c0,0.9,1.6,1,2.4,1.8c0.4,0.3,0.4,0.7,0.4,1.1c0,1.1-1,2-2.3,2s-1.9-0.8-1.9-1.4c0-0.6,0.4-0.9,0.7-0.9
	c0.3,0,0.6,0.3,0.6,0.6c0,0.2-0.2,0.5-0.4,0.6c-0.2,0.1-0.4,0-0.4,0.2s0.6,0.6,1.3,0.6c1,0,1.7-0.6,1.7-1.2c0-0.3-0.1-0.5-0.3-0.7
	c-0.4-0.4-1.4-0.6-1.9-1.1c-0.3-0.3-0.4-0.6-0.4-1.1c0-1,0.8-1.9,2.1-1.9C97.6,47.1,98,47.8,98,48.3z"/>
<path class="st4" d="M108.6,44.7h1l-0.7,2.6h0.9v0.5h-1l-1,3.7c-0.1,0.4-0.2,0.9-0.2,1.2s0.1,0.6,0.3,0.6c0.8,0,1.4-1.6,1.6-2.6h0.2
	c-0.3,1.5-1,2.9-1.8,2.9s-1.1-1-1.1-1.7c0-0.2,0.1-0.8,0.2-1.3l0.7-2.8h-0.9l0.1-0.5h0.9L108.6,44.7z"/>
<path class="st4" d="M113.3,49.8c0.3-1.8,1.4-2.7,1.9-2.7c0.6,0,1,0.7,1,1.6c0,1.4-1.2,3.1-1.2,4c0,0.2,0.1,0.4,0.4,0.4
	c0.5,0,1.3-1.2,1.5-2.4h0.2c-0.1,1.2-1,2.6-1.8,2.6c-0.7,0-0.9-1-0.9-1.6c0-1.3,1.2-3,1.2-4c0-0.2-0.1-0.4-0.3-0.4
	c-0.4,0-1.4,0.8-1.6,2.4h-0.4C113.3,49.7,113.3,49.8,113.3,49.8z M116.8,45.2c0,0.4-0.3,0.7-0.7,0.7c-0.4,0-0.7-0.3-0.7-0.7
	s0.3-0.7,0.7-0.7C116.5,44.5,116.8,44.8,116.8,45.2z"/>
<path class="st4" d="M120.5,50c0.4-2,1.2-2.9,1.7-2.9c0.6,0,0.8,0.6,0.8,1.4c0,0.4,0,0.9-0.1,1.3c0.7-1.7,1.3-2.8,2.3-2.8
	c0.6,0,1,0.6,1,1.8c0,0.3,0,0.7-0.1,1.1c0.8-2.1,1.7-2.9,2.4-2.9c0.7,0,1.2,0.8,1.2,1.7c0,1.4-1.2,3-1.2,3.9c0,0.2,0.1,0.4,0.3,0.4
	c0.4,0,1.2-0.8,1.7-2.4h0.2c-0.4,1.7-1.3,2.7-1.9,2.7c-0.6,0-0.9-0.7-0.9-1.6c0-1.4,1.2-2.9,1.2-3.9c0-0.2-0.1-0.6-0.5-0.6
	c-0.9,0-1.9,1.6-2.7,4.3l-0.5,1.5h-1l1.2-4.4c0.1-0.3,0.1-0.6,0.1-0.8c0-0.5-0.2-0.7-0.5-0.7c-1.3,0-2.2,3.3-2.5,4.1l-0.5,1.8h-1
	l1.3-4.5c0.1-0.4,0.2-0.7,0.2-1s-0.1-0.5-0.4-0.5c-0.4,0-1.1,1-1.5,2.6h-0.3V50z"/>
<path class="st4" d="M138.5,51.3c-0.6,1.4-1.6,2.2-2.6,2.2c-1.1,0-1.9-1-1.9-2.4c0-0.8,0.3-1.7,1.5-2.8c0.8-0.8,1.4-1.1,1.9-1.1
	c0.6,0,1.2,0.5,1.2,1.2c0,1-0.9,1.7-3.4,2.4c-0.2,0.7-0.3,1.1-0.3,1.3c0,0.7,0.5,1.1,1,1.1c0.8,0,1.8-0.7,2.3-2L138.5,51.3
	L138.5,51.3z M136.6,47.8c-0.6,0.6-1,1.9-1.4,2.8c0.7-0.2,1.5-0.5,2-1.1c0.3-0.3,0.7-0.9,0.7-1.4c0-0.3-0.2-0.6-0.6-0.6
	C137.2,47.4,136.9,47.5,136.6,47.8z"/>
<path class="st4" d="M149,44.7h1l-0.7,2.6h0.9v0.5h-1l-1,3.7c-0.1,0.4-0.2,0.9-0.2,1.2s0.1,0.6,0.3,0.6c0.8,0,1.4-1.6,1.6-2.6h0.2
	c-0.3,1.5-1,2.9-1.8,2.9s-1.1-1-1.1-1.7c0-0.2,0.1-0.8,0.2-1.3l0.7-2.8h-0.9l0.1-0.5h0.9L149,44.7z"/>
<path class="st4" d="M153.8,50.8c0-0.8,0.2-1.6,1.2-2.6c0.5-0.5,1.3-1.2,2.1-1.2c1.3,0,1.9,1.7,1.9,2.7c0,1.1-0.7,2-1.3,2.6
	c-0.5,0.5-1.3,1-2,1C154.4,53.4,153.8,51.6,153.8,50.8z M156.8,52.7c0.7-0.7,1.4-3.7,1.4-4.2c0-0.7-0.4-1.1-1.1-1.1
	c-0.7,0-1.2,0.6-1.5,1.2c-0.4,0.8-1,2.9-1,3.5c0,0.7,0.4,1.1,1.1,1.1C156.2,53.2,156.6,52.9,156.8,52.7z"/>
<path class="st4" d="M168.9,44.6c0.3,0,0.9,0,1.6-0.1l-1.1,4.1c0.6-0.9,1.1-1.4,1.9-1.4c1.1,0,1.7,1.6,1.7,2.5c0,1.1-0.6,2-1.3,2.7
	s-1.4,1.1-2.1,1.1c-1.1,0-1.8-0.9-1.8-2.2c0-0.2,0-0.6,0.3-1.5l1.1-4.1c0-0.1,0.1-0.2,0.1-0.3c0-0.2-0.2-0.4-0.8-0.4h-0.3l0.1-0.3
	L168.9,44.6L168.9,44.6z M168.6,52c0,0.7,0.4,1.2,1,1.2c0.8,0,1.3-0.7,1.7-1.6c0.3-0.7,0.8-2.5,0.8-3.1c0-0.7-0.4-1.1-0.9-1.1
	C169.6,47.4,168.6,50.9,168.6,52z"/>
<path class="st4" d="M177.4,44.6c0.4,0,1.5,0,2.1-0.1l-2.1,7.7c-0.1,0.2-0.1,0.4-0.1,0.6c0,0.3,0.1,0.4,0.3,0.4
	c0.5,0,1.1-0.9,1.5-2.4h0.2c-0.4,1.6-1,2.7-1.8,2.7c-0.5,0-0.9-0.6-0.9-1.5c0-0.3,0-0.7,0.2-1.1l1.4-5.2c0-0.1,0-0.1,0-0.2
	c0-0.2-0.2-0.4-0.6-0.4h-0.8l0.1-0.3h0.5L177.4,44.6L177.4,44.6z"/>
<path class="st4" d="M182.8,50.8c0-0.8,0.2-1.6,1.2-2.6c0.5-0.5,1.3-1.2,2.1-1.2c1.3,0,1.9,1.7,1.9,2.7c0,1.1-0.7,2-1.3,2.6
	c-0.5,0.5-1.3,1-2,1C183.4,53.4,182.8,51.6,182.8,50.8z M185.8,52.7c0.7-0.7,1.4-3.7,1.4-4.2c0-0.7-0.4-1.1-1.1-1.1
	c-0.7,0-1.2,0.6-1.5,1.2c-0.4,0.8-1,2.9-1,3.5c0,0.7,0.4,1.1,1.1,1.1C185.2,53.2,185.6,52.9,185.8,52.7z"/>
<path class="st4" d="M191.6,50.8c0-0.8,0.2-1.6,1.2-2.6c0.5-0.5,1.3-1.2,2.1-1.2c1.3,0,1.9,1.7,1.9,2.7c0,1.1-0.7,2-1.3,2.6
	c-0.5,0.5-1.3,1-2,1C192.2,53.4,191.6,51.6,191.6,50.8z M194.6,52.7c0.7-0.7,1.4-3.7,1.4-4.2c0-0.7-0.4-1.1-1.1-1.1
	c-0.7,0-1.2,0.6-1.5,1.2c-0.4,0.8-1,2.9-1,3.5c0,0.7,0.4,1.1,1.1,1.1C194,53.2,194.4,52.9,194.6,52.7z"/>
<path class="st4" d="M200.3,50c0.4-2,1.2-2.9,1.7-2.9c0.6,0,0.8,0.6,0.8,1.4c0,0.4,0,0.9-0.1,1.3c0.7-1.7,1.3-2.8,2.3-2.8
	c0.6,0,1,0.6,1,1.8c0,0.3,0,0.7-0.1,1.1c0.8-2.1,1.7-2.9,2.4-2.9s1.2,0.8,1.2,1.7c0,1.4-1.2,3-1.2,3.9c0,0.2,0.1,0.4,0.3,0.4
	c0.4,0,1.2-0.8,1.7-2.4h0.2c-0.4,1.7-1.3,2.7-1.9,2.7c-0.6,0-0.9-0.7-0.9-1.6c0-1.4,1.2-2.9,1.2-3.9c0-0.2-0.1-0.6-0.5-0.6
	c-0.9,0-1.9,1.6-2.7,4.3l-0.5,1.5h-1l1.2-4.4c0.1-0.3,0.1-0.6,0.1-0.8c0-0.5-0.2-0.7-0.5-0.7c-1.3,0-2.2,3.3-2.5,4.1L202,53h-1
	l1.3-4.5c0.1-0.4,0.2-0.7,0.2-1s-0.1-0.5-0.4-0.5c-0.4,0-1.1,1-1.5,2.6h-0.3V50z"/>
<path class="st4" d="M215.3,52.8c0,0.4-0.3,0.7-0.7,0.7s-0.7-0.3-0.7-0.7s0.3-0.7,0.7-0.7S215.3,52.4,215.3,52.8z"/>
<path class="st5" d="M100.3,4.9c0,0.3-0.1,0.6-0.4,0.8C99.7,5.9,99.4,6,99,6l-4.8-0.2v1.6c0,0.3-0.1,0.6-0.3,0.7
	c-0.2,0.2-0.5,0.3-0.9,0.3c-0.3,0-0.6-0.1-0.8-0.3c-0.3-0.2-0.4-0.4-0.4-0.7V5.8l-6.7-0.1l-6.6,0.1v1.6c0,0.3-0.1,0.6-0.3,0.7
	c-0.2,0.2-0.5,0.3-0.9,0.3c-0.3,0-0.6-0.1-0.8-0.3c-0.3-0.2-0.4-0.4-0.4-0.7V5.8l-5,0.2c-0.4,0-0.7-0.1-0.9-0.3
	c-0.2-0.2-0.3-0.5-0.3-0.8c0-0.7,0.3-1,1-1L76,3.6V2.1c0-0.3,0.1-0.5,0.4-0.7C76.7,1.1,77,1,77.3,1c0.8,0,1.2,0.4,1.2,1v1.5l6.6-0.1
	l6.7,0.1V2.1c0-0.3,0.1-0.5,0.4-0.7C92.4,1.1,92.7,1,93,1c0.8,0,1.2,0.4,1.2,1v1.5l4.9,0.3c0.3,0,0.6,0.1,0.8,0.2
	C100.2,4.2,100.3,4.5,100.3,4.9z M78.6,13c0,0.9-0.4,1.7-1,2.4V35c0,0.7-0.4,1-1.2,1c-0.3,0-0.6-0.1-0.8-0.2
	c-0.3-0.1-0.4-0.4-0.4-0.8V18.4c-1.1,1.8-1.6,3.4-1.6,4.8c0,0.6-0.4,0.9-1.2,0.9c-0.8,0-1.2-0.3-1.2-1c0-2.6,1.5-5.6,4.5-9
	c0.4-0.3,0.6-0.6,0.6-1s-0.2-0.7-0.6-0.9l-2.5-1.5c-0.4-0.2-0.6-0.4-0.6-0.7c0-0.4,0.2-0.7,0.6-1s0.8-0.3,1.2,0l2.5,1.3
	C78,10.9,78.6,11.8,78.6,13z M99,33c0,0.4-0.1,0.7-0.4,0.8S98.1,34,97.8,34h-9.4c-1.3,0-2.4-0.4-3.3-1.2c-1-0.8-1.4-1.8-1.4-3v-18
	c0-0.8,0.4-1.2,1.2-1.2c0.3,0,0.6,0.1,0.8,0.3c0.2,0.2,0.4,0.5,0.4,0.9v10.3h5.7c1.1,0,2-0.2,2.8-0.7c0.7-0.5,1.1-1.2,1.1-2.1V12
	c0-0.7,0.4-1,1.2-1c0.3,0,0.6,0.1,0.8,0.3c0.2,0.2,0.4,0.4,0.4,0.7v7.3c0,1.6-0.6,2.8-1.9,3.7c-1.3,0.9-2.7,1.3-4.4,1.3h-5.7v5.4
	c0,0.6,0.2,1.1,0.6,1.5s0.9,0.6,1.6,0.6h9.4c0.3,0,0.6,0.1,0.8,0.3C98.9,32.4,99,32.7,99,33z"/>
<path class="st5" d="M113.4,24.3c0.7,0,1,0.4,1,1.2c0,3.5-0.5,6.8-1.5,9.9c-0.1,0.4-0.4,0.6-1,0.6c-0.4,0-0.7-0.1-1-0.3
	s-0.3-0.5-0.2-1c0.9-2.5,1.3-5.5,1.3-9.1c0-0.4,0.2-0.7,0.5-0.9C112.8,24.4,113.1,24.3,113.4,24.3z"/>
<path class="st5" d="M126.7,21.9c-0.3-0.2-0.5-0.3-0.8-0.3H124V9.1h1.5c0.3,0.1,0.6,0,0.8-0.2c0.2-0.2,0.4-0.6,0.4-1
	c0-0.5-0.4-0.8-1.2-1H124v-5c0-0.7-0.4-1-1.2-1c-0.3,0-0.6,0.1-0.8,0.3c-0.3,0.2-0.4,0.5-0.4,0.8v4.8h-7.2V1.9
	c0-0.3-0.1-0.5-0.4-0.8c-0.3-0.2-0.5-0.3-0.8-0.3s-0.6,0.1-0.8,0.3c-0.3,0.2-0.4,0.5-0.4,0.8v4.9h-1.8c-0.7,0.2-1,0.6-1,1
	c0,0.8,0.4,1.2,1.2,1.2h1.6v12.4h-2.1c-0.3,0-0.6,0.1-0.8,0.3c-0.3,0.2-0.4,0.4-0.4,0.7c0,0.4,0.1,0.7,0.4,0.9
	c0.2,0.2,0.5,0.3,0.8,0.3c2-0.1,4.6-0.2,7.9-0.2c3.4,0,6,0.1,7.9,0.2c0.9,0,1.3-0.4,1.3-1.2C127.1,22.3,126.9,22.1,126.7,21.9z
	 M121.5,21.4h-7.2v-2.5h7.2V21.4z M121.5,16.6h-7.2v-2.5c2.4-0.1,4.8-0.1,7.2,0V16.6z M121.5,11.8c-2.4,0-4.8,0-7.2,0V9h7.2V11.8z"
	/>
<path class="st5" d="M125.3,34.6V35c0,0.3-0.1,0.5-0.4,0.7s-0.6,0.3-1,0.3s-0.7-0.3-1-0.7c-0.8-2.6-1.3-5.9-1.5-9.9
	c0-0.4,0.1-0.7,0.5-0.9c0.3-0.2,0.6-0.3,0.9-0.3c0.7,0,1,0.4,1,1.2C124,29.3,124.5,32.3,125.3,34.6z"/>
<path class="st5" d="M141.2,17.5c0-5.6,0.1-9.5,0.3-11.7c0.1-1.4-0.1-2.5-0.6-3.3s-1.4-1.3-2.8-1.5h-2.8h-2.8
	c-1.4,0.2-2.3,0.7-2.8,1.5s-0.7,1.9-0.6,3.3c0.3,3.2,0.5,7.1,0.5,11.7c0,7.3-0.3,13.2-0.9,17.7c0,0.3,0.1,0.6,0.3,0.8
	c0.2,0.2,0.5,0.4,0.9,0.4c0.3,0,0.6-0.1,0.8-0.4c0.2-0.3,0.4-0.4,0.4-0.5c0.5-4,0.7-8.6,0.7-13.9c2.4-0.1,4.8-0.1,7.2,0
	c0,5.3,0.2,9.9,0.7,13.9c0.2,0.6,0.6,0.9,1.2,0.9c0.4,0,0.7-0.1,0.9-0.4c0.2-0.3,0.3-0.5,0.3-0.7v-0.1
	C141.4,31.5,141.2,25.6,141.2,17.5z M138.8,19.3c-2.3-0.1-4.6-0.1-7,0c0-2.8-0.1-4.9-0.1-6.3c2.4-0.1,4.8-0.1,7.2,0
	c0,0.6,0,1.6-0.1,2.8C138.6,17.2,138.7,18.3,138.8,19.3z M139.1,5.8l-0.3,4.9c-2.3-0.1-4.7-0.1-7.2,0c-0.2-2.8-0.3-4.7-0.3-5.7
	c0-1.1,0.4-1.7,1.2-1.8h2.7h2.5c0.9,0.1,1.3,0.7,1.3,1.8v0.8C139,5.8,139.1,5.8,139.1,5.8z"/>
<path class="st5" d="M215.7,34.1c0,0.3-0.1,0.6-0.4,0.7c-0.3,0.2-0.5,0.3-0.8,0.3c-4.5-0.3-8.9-0.5-13.2-0.5s-8.6,0.1-13,0.5
	c-0.4,0-0.7-0.1-0.9-0.3s-0.3-0.5-0.3-0.7c0-0.8,0.3-1.2,1-1.2c4.1-0.2,8.1-0.3,12-0.3v-7c-2,0-5.2,0.1-9.6,0.3
	c-0.4,0-0.7-0.1-0.9-0.4c-0.2-0.2-0.3-0.5-0.3-0.8c0-0.2,0.1-0.4,0.3-0.7c0.2-0.2,0.4-0.4,0.7-0.4c4.6-0.2,7.8-0.3,9.7-0.3v-4.9
	h-5.7c-0.9,0-1.7-0.3-2.3-0.9c-0.7-0.6-1-1.3-1-2.1c0-0.7,0.2-1.3,0.6-1.8l6.6-9.6L190,4.3c-0.8,0-1.2-0.4-1.2-1.2
	c0-0.2,0.1-0.4,0.3-0.7c0.2-0.2,0.5-0.4,0.7-0.4c5.2-0.2,9-0.3,11.4-0.3s6.2,0.1,11.4,0.3c0.3,0,0.6,0.1,0.8,0.4s0.4,0.5,0.4,0.7
	c0,0.8-0.4,1.2-1.3,1.2l-8-0.3l6.6,9.6c0.4,0.5,0.6,1.1,0.6,1.8c0,0.9-0.3,1.6-1,2.2s-1.5,0.8-2.5,0.8h-5.7v4.9
	c2.1,0,5.3,0.1,9.7,0.3c0.3,0,0.6,0.1,0.8,0.4s0.4,0.5,0.4,0.7c0,0.3-0.1,0.6-0.4,0.8c-0.3,0.3-0.5,0.4-0.8,0.4
	c-4.6-0.2-7.8-0.3-9.7-0.3v7c4,0,8,0.1,12,0.3c0.3,0,0.6,0.1,0.8,0.3C215.6,33.5,215.7,33.8,215.7,34.1z M193.5,15.4
	c0,0.5,0.3,0.7,0.9,0.7h13.8c0.5,0,0.8-0.1,1-0.4s0.1-0.6-0.1-1l-7-9.9c-0.2-0.3-0.4-0.4-0.7-0.4s-0.5,0.1-0.7,0.4l-7,9.9
	C193.6,14.9,193.5,15.1,193.5,15.4z"/>
<text transform="matrix(1 0 0 1 146.8393 35.1211)" class="st6 st7">衣</text>
<text transform="matrix(1 0 0 1 146.8393 35.1211)" class="st8 st6 st7">衣</text>
</svg>
