<?xml version="1.0" encoding="utf-8"?>
<!-- Generator: Adobe Illustrator 22.1.0, SVG Export Plug-In . SVG Version: 6.00 Build 0)  -->
<svg version="1.1" id="Layer_1" xmlns="http://www.w3.org/2000/svg" xmlns:xlink="http://www.w3.org/1999/xlink" x="0px" y="0px"
	 width="356.6px" height="88.8px" viewBox="0 0 356.6 88.8" style="enable-background:new 0 0 356.6 88.8;" xml:space="preserve">
<style type="text/css">
	.st0{fill:none;}
	.st1{stroke:#000000;stroke-width:0.75;stroke-miterlimit:10;}
	.st2{clip-path:url(#SVGID_2_);}
	.st3{clip-path:url(#SVGID_4_);}
	.st4{stroke:#020202;stroke-width:0.25;stroke-miterlimit:10;}
	.st5{stroke:#000000;stroke-width:0.5;stroke-miterlimit:10;}
</style>
<g>
	<rect x="0.4" y="0.5" class="st0" width="72" height="86.5"/>
	<g>
		<path class="st1" d="M36.4,87c-19.9,0-36-16.2-36-36V0.5h72V51C72.4,70.8,56.2,87,36.4,87z M2.8,2.9v48c0,18.5,15,33.5,33.5,33.5
			c18.5,0,33.5-15,33.5-33.5v-48H2.8z"/>
	</g>
	<rect x="0.4" y="0.5" class="st0" width="72" height="86.5"/>
	<g>
		<polygon class="st1" points="39.1,1.2 40.8,3 2.6,42 1.3,39.8 		"/>
	</g>
	<g>
		<defs>
			<rect id="SVGID_1_" x="0.4" y="0.5" width="72" height="86.5"/>
		</defs>
		<clipPath id="SVGID_2_">
			<use xlink:href="#SVGID_1_"  style="overflow:visible;"/>
		</clipPath>
		<g class="st2">
			<polygon class="st1" points="70.2,31.9 71.1,34.5 23,82.6 20.3,81.7 			"/>
		</g>
	</g>
	<g>
		<defs>
			<rect id="SVGID_3_" x="0.4" y="0.5" width="72" height="86.5"/>
		</defs>
		<clipPath id="SVGID_4_">
			<use xlink:href="#SVGID_3_"  style="overflow:visible;"/>
		</clipPath>
		<g class="st3">
			
				<rect x="-7.6" y="32.9" transform="matrix(0.7078 -0.7064 0.7064 0.7078 -12.9289 37.0169)" class="st1" width="91.7" height="2.5"/>
		</g>
	</g>
	<path class="st4" d="M118.3,73.7h7.5l-0.2,0.6h-2.3l-3.5,13.4h3.2l-0.2,0.6h-7.9l0.1-0.6h2.6l3.5-13.4h-3L118.3,73.7z"/>
	<path class="st4" d="M133.4,73.8h1.6l-1.1,4.3h1.5v0.8h-1.7l-1.6,6.2c-0.2,0.7-0.3,1.4-0.3,2c0,0.5,0.1,0.9,0.6,0.9
		c1.4,0,2.4-2.7,2.7-4.4h0.4c-0.5,2.6-1.7,4.8-3,4.8c-1.4,0-1.9-1.6-1.9-2.8c0-0.4,0.1-1.3,0.4-2.1l1.2-4.7h-1.5l0.2-0.8h1.5
		L133.4,73.8z"/>
	<path class="st4" d="M144.4,79.2l-0.5-2.9l-0.2-1c0-0.2,0-0.4,0-0.5c0-0.9,0.3-1.3,0.9-1.3c0.6,0,0.9,0.4,0.9,1.1
		c0,0.2,0,0.4-0.1,0.7l-0.7,3.8H144.4z"/>
	<path class="st4" d="M158.8,79.9c0,0.7-0.5,1.4-1.2,1.4c-0.6,0-1-0.4-1-1c0-1.3,1.2-1.1,1.2-1.4c0-0.4-0.6-0.8-1.6-0.8
		c-1.6,0-2.7,1-2.7,2c0,1.5,2.7,1.7,4,3c0.6,0.6,0.7,1.2,0.7,1.8c0,1.8-1.7,3.4-3.9,3.4c-2.1,0-3.1-1.3-3.1-2.4s0.7-1.5,1.2-1.5
		c0.6,0,1,0.4,1,1.1c0,0.4-0.3,0.8-0.7,1c-0.4,0.2-0.6,0.1-0.6,0.4c0,0.4,0.9,1.1,2.2,1.1c1.6,0,2.8-1,2.8-2.1
		c0-0.5-0.2-0.8-0.6-1.2c-0.7-0.7-2.3-1-3.2-1.8c-0.5-0.5-0.8-1-0.8-1.8c0-1.7,1.3-3.3,3.5-3.3C158,77.8,158.8,79.1,158.8,79.9z"/>
	<path class="st4" d="M176.4,73.8h1.6l-1.1,4.3h1.5v0.8h-1.7l-1.6,6.2c-0.2,0.7-0.3,1.4-0.3,2c0,0.5,0.1,0.9,0.6,0.9
		c1.4,0,2.4-2.7,2.7-4.4h0.4c-0.5,2.6-1.7,4.8-3,4.8c-1.4,0-1.9-1.6-1.9-2.8c0-0.4,0.1-1.3,0.4-2.1l1.2-4.7h-1.5l0.2-0.8h1.5
		L176.4,73.8z"/>
	<path class="st4" d="M184.3,82.4c0.4-3.1,2.4-4.5,3.3-4.5c1,0,1.6,1.2,1.6,2.7c0,2.4-2,5.2-2,6.8c0,0.3,0.1,0.7,0.6,0.7
		c0.8,0,2.2-2,2.5-4h0.4c-0.2,2-1.7,4.4-3.1,4.4c-1.2,0-1.5-1.7-1.5-2.7c0-2.2,1.9-5.1,1.9-6.7c0-0.4-0.2-0.7-0.6-0.7
		c-0.6,0-2.3,1.3-2.8,4H184.3z M190.3,74.7c0,0.6-0.5,1.1-1.1,1.1c-0.6,0-1.1-0.5-1.1-1.1c0-0.6,0.5-1.1,1.1-1.1
		C189.8,73.6,190.3,74.1,190.3,74.7z"/>
	<path class="st4" d="M196.5,82.8c0.7-3.3,2-4.8,2.9-4.8c1,0,1.3,1,1.3,2.4c0,0.7-0.1,1.5-0.2,2.3c1.2-2.9,2.2-4.7,3.8-4.7
		c1.1,0,1.6,1.1,1.6,3c0,0.6-0.1,1.2-0.2,1.9c1.3-3.5,2.8-4.8,4-4.8c1.2,0,1.9,1.4,1.9,2.9c0,2.4-1.9,5.1-1.9,6.6
		c0,0.4,0.1,0.7,0.5,0.7c0.7,0,1.9-1.4,2.8-4.1h0.4c-0.7,2.8-2.1,4.5-3.3,4.5c-1.1,0-1.6-1.2-1.6-2.6c0-2.3,2-4.9,2-6.5
		c0-0.4-0.2-1-0.8-1c-1.6,0-3.2,2.7-4.6,7.3l-0.8,2.6h-1.6l2.1-7.4c0.2-0.5,0.2-1,0.2-1.3c0-0.8-0.3-1.2-0.9-1.2
		c-2.1,0-3.7,5.6-4.1,7l-0.9,3h-1.7l2.1-7.5c0.2-0.7,0.3-1.2,0.3-1.6c0-0.5-0.2-0.8-0.6-0.8c-0.7,0-1.8,1.6-2.5,4.4H196.5z"/>
	<path class="st4" d="M226.7,84.9c-1,2.4-2.7,3.8-4.4,3.8c-1.8,0-3.2-1.7-3.2-4c0-1.3,0.5-2.9,2.4-4.8c1.3-1.3,2.3-1.9,3.2-1.9
		c1.1,0,2,0.8,2,2.1c0,1.6-1.5,2.9-5.7,4.1c-0.4,1.1-0.5,1.9-0.5,2.2c0,1.2,0.9,1.8,1.7,1.8c1.3,0,3-1.2,3.9-3.3H226.7z M223.5,79
		c-1,1-1.7,3.1-2.3,4.7c1.2-0.4,2.5-0.9,3.4-1.8c0.5-0.5,1.2-1.5,1.2-2.4c0-0.5-0.4-1.1-1.1-1.1C224.5,78.4,224,78.5,223.5,79z"/>
	<path class="st4" d="M244.4,73.8h1.6l-1.1,4.3h1.5v0.8h-1.7l-1.6,6.2c-0.2,0.7-0.3,1.4-0.3,2c0,0.5,0.1,0.9,0.6,0.9
		c1.4,0,2.4-2.7,2.7-4.4h0.4c-0.5,2.6-1.7,4.8-3,4.8c-1.4,0-1.9-1.6-1.9-2.8c0-0.4,0.1-1.3,0.4-2.1l1.2-4.7h-1.5l0.2-0.8h1.5
		L244.4,73.8z"/>
	<path class="st4" d="M252.4,84.2c0-1.3,0.3-2.7,2-4.3c0.8-0.8,2.2-2,3.6-2c2.2,0,3.2,2.8,3.2,4.5c0,1.9-1.1,3.3-2.3,4.4
		c-0.8,0.8-2.1,1.7-3.3,1.7C253.4,88.5,252.4,85.4,252.4,84.2z M257.5,87.2c1.2-1.2,2.3-6.2,2.3-7.1c0-1.2-0.8-1.9-1.8-1.9
		c-1.2,0-2,1-2.5,2c-0.6,1.3-1.7,4.9-1.7,5.9c0,1.1,0.6,1.9,1.8,1.9C256.5,88.1,257.1,87.6,257.5,87.2z"/>
	<path class="st4" d="M277.9,73.7c0.5,0,1.5,0,2.7-0.2l-1.9,6.8c1-1.6,1.8-2.4,3.1-2.4c1.9,0,2.9,2.7,2.9,4.2c0,1.9-0.9,3.3-2.1,4.5
		c-1.1,1.1-2.3,1.8-3.5,1.8c-1.8,0-3.1-1.6-3.1-3.7c0-0.4,0-0.9,0.4-2.5l1.9-6.9c0.1-0.2,0.1-0.4,0.1-0.6c0-0.4-0.3-0.7-1.3-0.7
		h-0.5l0.2-0.6H277.9z M277.3,86.2c0,1.2,0.6,2,1.7,2c1.3,0,2.3-1.1,2.9-2.7c0.5-1.2,1.3-4.2,1.3-5.2c0-1.2-0.6-1.8-1.5-1.8
		C279,78.4,277.3,84.3,277.3,86.2z"/>
	<path class="st4" d="M292,73.7c0.7,0,2.6-0.1,3.5-0.2l-3.6,12.9c-0.1,0.4-0.2,0.7-0.2,1c0,0.4,0.2,0.7,0.6,0.7c0.8,0,1.9-1.5,2.5-4
		h0.4c-0.6,2.7-1.7,4.5-3,4.5c-0.9,0-1.5-1-1.5-2.6c0-0.6,0.1-1.2,0.3-1.9l2.4-8.7c0-0.1,0.1-0.2,0.1-0.3c0-0.4-0.3-0.7-1-0.7H291
		l0.1-0.6H292z"/>
	<path class="st4" d="M301.2,84.2c0-1.3,0.3-2.7,2-4.3c0.8-0.8,2.2-2,3.6-2c2.2,0,3.2,2.8,3.2,4.5c0,1.9-1.1,3.3-2.3,4.4
		c-0.8,0.8-2.1,1.7-3.3,1.7C302.1,88.5,301.2,85.4,301.2,84.2z M306.2,87.2c1.2-1.2,2.3-6.2,2.3-7.1c0-1.2-0.8-1.9-1.8-1.9
		c-1.2,0-2,1-2.5,2c-0.6,1.3-1.7,4.9-1.7,5.9c0,1.1,0.6,1.9,1.8,1.9C305.2,88.1,305.8,87.6,306.2,87.2z"/>
	<path class="st4" d="M315.9,84.2c0-1.3,0.3-2.7,2-4.3c0.8-0.8,2.2-2,3.6-2c2.2,0,3.2,2.8,3.2,4.5c0,1.9-1.1,3.3-2.3,4.4
		c-0.8,0.8-2.1,1.7-3.3,1.7C316.8,88.5,315.9,85.4,315.9,84.2z M320.9,87.2c1.2-1.2,2.3-6.2,2.3-7.1c0-1.2-0.8-1.9-1.8-1.9
		c-1.2,0-2,1-2.5,2c-0.6,1.3-1.7,4.9-1.7,5.9c0,1.1,0.6,1.9,1.8,1.9C319.9,88.1,320.5,87.6,320.9,87.2z"/>
	<path class="st4" d="M330.5,82.8c0.7-3.3,2-4.8,2.9-4.8c1,0,1.3,1,1.3,2.4c0,0.7-0.1,1.5-0.2,2.3c1.2-2.9,2.2-4.7,3.8-4.7
		c1.1,0,1.6,1.1,1.6,3c0,0.6-0.1,1.2-0.2,1.9c1.3-3.5,2.8-4.8,4-4.8c1.2,0,1.9,1.4,1.9,2.9c0,2.4-1.9,5.1-1.9,6.6
		c0,0.4,0.1,0.7,0.5,0.7c0.7,0,1.9-1.4,2.8-4.1h0.4c-0.7,2.8-2.1,4.5-3.3,4.5c-1.1,0-1.6-1.2-1.6-2.6c0-2.3,2-4.9,2-6.5
		c0-0.4-0.2-1-0.8-1c-1.6,0-3.2,2.7-4.6,7.3l-0.8,2.6h-1.6l2.1-7.4c0.2-0.5,0.2-1,0.2-1.3c0-0.8-0.3-1.2-0.9-1.2
		c-2.1,0-3.7,5.6-4.1,7l-0.9,3h-1.7l2.1-7.5c0.2-0.7,0.3-1.2,0.3-1.6c0-0.5-0.2-0.8-0.6-0.8c-0.7,0-1.8,1.6-2.5,4.4H330.5z"/>
	<path class="st4" d="M355.7,87.5c0,0.7-0.6,1.2-1.2,1.2c-0.7,0-1.2-0.6-1.2-1.2c0-0.7,0.6-1.2,1.2-1.2
		C355.1,86.2,355.7,86.8,355.7,87.5z"/>
	<path class="st5" d="M162.6,7c0,0.5-0.2,0.9-0.6,1.3c-0.4,0.3-1,0.5-1.6,0.5l-8.1-0.3v2.8c0,0.5-0.2,0.9-0.5,1.3
		c-0.3,0.3-0.8,0.5-1.5,0.5c-0.5,0-1-0.2-1.4-0.5c-0.4-0.3-0.6-0.8-0.6-1.3V8.6L137,8.3l-11.1,0.3v2.8c0,0.5-0.2,0.9-0.5,1.3
		c-0.3,0.3-0.8,0.5-1.5,0.5c-0.5,0-1-0.2-1.4-0.5c-0.4-0.3-0.6-0.8-0.6-1.3V8.6l-8.3,0.3c-0.7,0-1.2-0.2-1.5-0.5
		c-0.3-0.3-0.5-0.8-0.5-1.3c0-1.2,0.6-1.8,1.8-1.8l8.6-0.5V2.3c0-0.5,0.2-0.9,0.6-1.3c0.4-0.3,0.9-0.5,1.4-0.5c1.3,0,2,0.6,2,1.8
		v2.5L137,4.5l11.3,0.3V2.3c0-0.5,0.2-0.9,0.6-1.3c0.4-0.3,0.9-0.5,1.4-0.5c1.3,0,2,0.6,2,1.8v2.5l8.3,0.5c0.5,0,1,0.1,1.4,0.4
		C162.4,5.9,162.6,6.4,162.6,7z M126.1,20.6c0,1.5-0.6,2.9-1.8,4v33c0,1.2-0.7,1.8-2,1.8c-0.5,0-1-0.1-1.4-0.4
		c-0.4-0.3-0.6-0.7-0.6-1.4V29.7c-1.8,3-2.8,5.7-2.8,8.1c0,1-0.7,1.5-2,1.5c-1.3,0-2-0.6-2-1.8c0-4.4,2.5-9.4,7.6-15.1
		c0.7-0.5,1-1.1,1-1.8c0-0.7-0.3-1.2-1-1.5l-4.3-2.5c-0.7-0.3-1-0.8-1-1.3c0-0.7,0.3-1.3,1-1.8c0.7-0.5,1.3-0.5,2,0l4.3,2.3
		C125.1,17,126.1,18.6,126.1,20.6z M160.4,54.1c0,0.7-0.2,1.1-0.6,1.4c-0.4,0.3-0.9,0.4-1.4,0.4h-15.9c-2.2,0-4-0.7-5.5-2
		c-1.5-1.3-2.3-3-2.3-5V18.6c0-1.3,0.7-2,2-2c0.5,0,1,0.2,1.4,0.5c0.4,0.3,0.6,0.8,0.6,1.5V36h9.6c1.8,0,3.4-0.4,4.7-1.3
		c1.3-0.8,1.9-2,1.9-3.5V18.9c0-1.2,0.7-1.8,2-1.8c0.5,0,1,0.2,1.4,0.5c0.4,0.3,0.6,0.8,0.6,1.3v12.3c0,2.7-1.1,4.8-3.1,6.3
		c-2.1,1.5-4.6,2.3-7.4,2.3h-9.6v9.1c0,1,0.3,1.8,1,2.5c0.7,0.7,1.6,1,2.8,1h15.9c0.5,0,1,0.2,1.4,0.5
		C160.2,53.2,160.4,53.6,160.4,54.1z"/>
	<path class="st5" d="M188,39.5c1.2,0,1.8,0.7,1.8,2c0,5.9-0.8,11.4-2.5,16.6c-0.2,0.7-0.8,1-1.8,1c-0.7,0-1.2-0.2-1.6-0.5
		c-0.4-0.3-0.5-0.9-0.4-1.8c1.5-4.2,2.3-9.3,2.3-15.4c0-0.7,0.3-1.2,0.8-1.5C187,39.7,187.5,39.5,188,39.5z"/>
	<path class="st5" d="M210.3,35.5c-0.4-0.3-0.9-0.5-1.4-0.5h-3.3V14.1h2.5c0.5,0.2,1,0,1.4-0.4c0.4-0.4,0.6-1,0.6-1.6
		c0-0.8-0.7-1.4-2-1.8h-2.5V2c0-1.2-0.7-1.8-2-1.8c-0.5,0-1,0.2-1.4,0.5c-0.4,0.3-0.6,0.8-0.6,1.3v8.1h-12.1V2
		c0-0.5-0.2-0.9-0.6-1.3c-0.4-0.3-0.9-0.5-1.4-0.5c-0.5,0-1,0.2-1.4,0.5c-0.4,0.3-0.6,0.8-0.6,1.3v8.3h-3c-1.2,0.3-1.8,0.9-1.8,1.8
		c0,1.3,0.7,2,2,2h2.8V35h-3.5c-0.5,0-1,0.2-1.4,0.5c-0.4,0.3-0.6,0.8-0.6,1.3c0,0.7,0.2,1.2,0.6,1.5c0.4,0.3,0.9,0.5,1.4,0.5
		c3.4-0.2,7.8-0.3,13.3-0.3c5.7,0,10.2,0.1,13.3,0.3c1.5,0,2.3-0.7,2.3-2C210.9,36.2,210.7,35.8,210.3,35.5z M201.6,34.7h-12.1v-4.3
		h12.1V34.7z M201.6,26.7h-12.1v-4.3c4-0.2,8.1-0.2,12.1,0V26.7z M201.6,18.6c-4,0-8.1,0-12.1,0v-4.8h12.1V18.6z"/>
	<path class="st5" d="M207.9,56.9v0.8c0,0.5-0.2,0.9-0.6,1.3c-0.4,0.3-1,0.5-1.6,0.5c-0.7,0-1.3-0.4-1.8-1.3
		c-1.3-4.4-2.2-9.9-2.5-16.6c0-0.7,0.3-1.2,0.8-1.5c0.5-0.3,1-0.5,1.5-0.5c1.2,0,1.8,0.7,1.8,2C205.7,47.9,206.5,53,207.9,56.9z"/>
	<path class="st5" d="M234.6,28.2c0-9.4,0.2-15.9,0.5-19.6c0.2-2.3-0.2-4.2-1-5.5c-0.8-1.3-2.4-2.2-4.8-2.5h-4.8h-4.8
		c-2.4,0.3-3.9,1.2-4.8,2.5c-0.8,1.3-1.2,3.2-1,5.5c0.5,5.4,0.8,11.9,0.8,19.6c0,12.3-0.5,22.1-1.5,29.7c0,0.5,0.2,1,0.5,1.4
		c0.3,0.4,0.8,0.6,1.5,0.6c0.5,0,1-0.2,1.4-0.6c0.4-0.4,0.6-0.7,0.6-0.9c0.8-6.7,1.3-14.5,1.3-23.4c4-0.2,8.1-0.2,12.1,0
		c0,8.9,0.4,16.7,1.3,23.4c0.3,1,1,1.5,2,1.5c0.7,0,1.2-0.2,1.5-0.6c0.3-0.4,0.5-0.8,0.5-1.1v-0.3C235,51.7,234.6,41.8,234.6,28.2z
		 M230.5,31.2c-3.9-0.2-7.8-0.2-11.8,0c0-4.7-0.1-8.2-0.3-10.6c4-0.2,8.1-0.2,12.1,0c0,1,0,2.6-0.1,4.8
		C230.3,27.6,230.4,29.5,230.5,31.2z M231,8.6l-0.5,8.3c-3.9-0.2-7.9-0.2-12.1,0c-0.3-4.7-0.5-7.9-0.5-9.6c0-1.8,0.7-2.9,2-3h4.5
		h4.3c1.5,0.2,2.3,1.2,2.3,3V8.6z"/>
	<path class="st5" d="M290.6,49.3c0.8,0,1.5,0.3,2,1c0.5,0.7,0.4,1.3-0.3,2c-2,2.4-4,4-5.9,4.9c-1.9,0.9-4.3,1.4-7.2,1.4h-15.6
		c-2.4,0-4.3-0.7-5.8-2c-1.5-1.3-2.3-3.1-2.3-5.3V24.2c0-0.8,0.2-1.5,0.5-2c0.3-0.5,0.8-0.8,1.5-0.8c1.3,0,2,0.7,2,2v2.3h21.6
		c1.8,0,2.8-0.8,2.8-2.5c-0.3-4.9-0.3-9.6,0-14.1c0-1.7-0.9-2.5-2.8-2.5h-24.2c-0.7,0-1.2-0.2-1.5-0.6c-0.3-0.4-0.5-0.9-0.5-1.4
		c0-1.2,0.7-1.8,2-1.8h24.2c2,0,3.7,0.6,4.9,1.9c1.3,1.3,1.9,2.7,1.9,4.4v14.1c0,1.7-0.6,3.1-1.9,4.4c-1.3,1.3-2.9,1.9-4.9,1.9
		h-21.6c0.2,3.7,0.2,7.8,0.1,12.5c-0.1,4.6-0.1,7.7-0.1,9.2c0,1.2,0.4,2.1,1.1,2.8c0.8,0.7,1.7,1,2.9,1h15.6c2.2,0,4-0.3,5.4-1
		c1.4-0.7,3-1.9,4.7-3.8C289.6,49.6,290.1,49.3,290.6,49.3z"/>
	<path class="st5" d="M356.4,56.1c0,0.5-0.2,0.9-0.6,1.3c-0.4,0.3-0.9,0.5-1.4,0.5c-7.5-0.5-14.9-0.8-22.1-0.8
		c-7.2,0-14.5,0.3-21.9,0.8c-0.7,0-1.2-0.2-1.5-0.5c-0.3-0.3-0.5-0.8-0.5-1.3c0-1.3,0.6-2,1.8-2c6.9-0.3,13.6-0.5,20.1-0.5V41.8
		c-3.4,0-8.7,0.2-16.1,0.5c-0.7,0-1.2-0.2-1.5-0.6c-0.3-0.4-0.5-0.9-0.5-1.4c0-0.3,0.2-0.7,0.5-1.1c0.3-0.4,0.8-0.6,1.3-0.6
		c7.7-0.3,13.2-0.5,16.4-0.5v-8.3h-9.6c-1.5,0-2.8-0.5-3.9-1.5c-1.1-1-1.6-2.2-1.6-3.5c0-1.2,0.3-2.2,1-3l11.1-16.1L313.3,6
		c-1.3,0-2-0.7-2-2c0-0.3,0.2-0.7,0.5-1.1c0.3-0.4,0.8-0.6,1.3-0.6c8.7-0.3,15.1-0.5,19.1-0.5c4,0,10.4,0.2,19.1,0.5
		c0.5,0,1,0.2,1.4,0.6c0.4,0.4,0.6,0.8,0.6,1.1c0,1.3-0.8,2-2.3,2l-13.6-0.5l11.1,16.1c0.7,0.8,1,1.8,1,3c0,1.5-0.5,2.7-1.6,3.7
		c-1.1,0.9-2.5,1.4-4.2,1.4h-9.6V38c3.5,0,9,0.2,16.4,0.5c0.5,0,1,0.2,1.4,0.6c0.4,0.4,0.6,0.8,0.6,1.1c0,0.5-0.2,1-0.6,1.4
		c-0.4,0.4-0.9,0.6-1.4,0.6c-7.7-0.3-13.2-0.5-16.4-0.5v11.8c6.7,0,13.4,0.2,20.1,0.5c0.5,0,1,0.2,1.4,0.5
		C356.2,55,356.4,55.5,356.4,56.1z M319.1,24.7c0,0.8,0.5,1.3,1.5,1.3h23.2c0.8,0,1.4-0.3,1.6-0.8s0.2-1.1-0.1-1.8L333.5,6.8
		c-0.3-0.5-0.7-0.8-1.1-0.8c-0.4,0-0.8,0.3-1.1,0.8l-11.8,16.6C319.2,23.7,319.1,24.2,319.1,24.7z"/>
</g>
</svg>
