<?xml version="1.0" encoding="utf-8"?>
<!-- Generator: Adobe Illustrator 22.1.0, SVG Export Plug-In . SVG Version: 6.00 Build 0)  -->
<svg version="1.1" id="图层_1" xmlns="http://www.w3.org/2000/svg" xmlns:xlink="http://www.w3.org/1999/xlink" x="0px" y="0px"
	 width="128px" height="128px" viewBox="0 0 128 128" style="enable-background:new 0 0 128 128;" xml:space="preserve">
<style type="text/css">
	.st0{fill:#FFFFFF;}
</style>
<g>
	<path d="M122.1,102.9c-0.1-2-0.3-4.1-0.3-6.1c0-4.4,0-8.8,0-13.5c-4.3,0-8.4,0-12.8,0c0-10.8,0-21.3,0-32.2c-4.4,0-8.5,0-12.7,0
		c0-4.3,0-8.5,0-12.7c2.1,0,4,0,6.2,0c0,2,0,4,0,6.1c6.5,0,12.8,0,19.4,0c0-2.1,0-4.1,0-6.1c2.2,0,4.1,0,6.2,0c0,4.2,0,8.3,0,12.6
		c-4.1,0-8.2,0-12.5,0c0,2.2,0,4.2,0,6.4c4.1,0,8.3,0,12.5,0c0,4.3,0,8.5,0,12.8c-1.9,0-3.9,0-6.2,0c0-2,0-4,0-6.1
		c-2.3,0-4.3,0-6.4,0c0,4.2,0,8.4,0,12.7c4.2,0,8.3,0,12.6,0c0,8.6,0,17,0,25.5C126.1,102.5,124.1,102.7,122.1,102.9
		C122.1,102.8,122.1,102.9,122.1,102.9z"/>
	<path d="M44.6,25.4c2.2,0,4.3,0,6.6,0c0-4.3,0-8.4,0-12.7c-4.2,0-8.4,0-12.6,0c0-2.2,0-4.2,0-6.4c4.2,0,8.3,0,12.7,0
		c0-2.2,0-4.2,0-6.3c2.3,0,4.3,0,6.4,0c0,2,0,4,0,6.1c2.3,0.2,4.4,0.3,6.6,0.4l-0.1-0.1c0,2,0,3.9,0,6.1c-2.2,0-4.2,0-6.3,0
		c0,4.3,0,8.5,0,12.8c2,0,4,0,6.1,0c0,4.4,0,8.5,0,12.9c-2,0-4,0-6.2,0c0,2.2,0,4.1,0,6.3c-6.5,0-12.8,0-19.3,0c0,4.3,0,8.5,0,12.7
		c-2.2,0-4.2,0-6.4,0c0-4.1,0-8.2,0-12.6c-4.3,0-8.4,0-12.7,0c0-2.2,0-4.1,0-6.3c10.5,0,21,0,31.7,0c0-2.2,0-4.2,0-6.5
		c-2,0-4,0-6.5,0C44.6,29.5,44.6,27.5,44.6,25.4L44.6,25.4z"/>
	<path d="M31.9,96.3c0,10.6,0,21.1,0,31.7c-10.7,0-21.2,0-31.9,0c0-10.6,0-21,0-31.7C10.6,96.3,21.1,96.3,31.9,96.3z M6.4,102.7
		c0,6.5,0,12.7,0,18.9c6.4,0,12.7,0,19.1,0c0-6.4,0-12.6,0-18.9C19.1,102.7,12.8,102.7,6.4,102.7z"/>
	<path d="M0,31.7C0,21,0,10.6,0,0c10.6,0,21.1,0,31.8,0c0,10.5,0,21,0,31.7C21.3,31.7,10.7,31.7,0,31.7z M6.4,25.3
		c6.5,0,12.8,0,19.1,0c0-6.4,0-12.6,0-18.8c-6.4,0-12.7,0-19.1,0C6.4,12.8,6.4,19,6.4,25.3z"/>
	<path d="M96.3,0c10.6,0,21.1,0,31.8,0c0,10.5,0,21.1,0,31.7c-10.6,0-21.1,0-31.8,0C96.3,21.1,96.3,10.6,96.3,0z M102.7,6.4
		c0,6.5,0,12.7,0,18.9c6.4,0,12.7,0,19,0c0-6.4,0-12.6,0-18.9C115.3,6.4,109,6.4,102.7,6.4z"/>
	<path d="M51.6,77c-0.1,1.9-0.3,3.9-0.3,5.8c0,4.3,0,8.6,0,13.1c2.1,0,4.1,0,6.3,0c0,2.3,0,4.3,0,6.5c-4.2,0-8.3,0-12.7,0
		c0,8.6,0,17,0,25.5c-2.3,0-4.2,0-6.4,0c0-10.6,0-21.1,0-31.9c2,0,4,0,6.3,0c0-6.5,0-12.7,0-19C47.2,77.1,49.4,77.1,51.6,77L51.6,77
		z"/>
	<path d="M76.7,95.9c2.1,0,4.2,0,6.4,0c0-4.1,0-8.2,0-12.6c-2,0-4.1,0-6.2,0C76.9,81,76.7,79,76.6,77l0,0c4.3,0,8.7,0,13.2,0
		c0,2,0,4,0,6.1c2.2,0,4.1,0,6.2,0c0,4.3,0,8.4,0,12.7c-1.9,0-3.9,0-6.1,0c0,2.3,0,4.3,0,6.4c-4.4,0-8.6,0-13,0
		C76.8,100.1,76.8,98,76.7,95.9L76.7,95.9z"/>
	<path d="M6.1,83.1c0-4.1,0-8.2,0-12.4l0,0c0.4-0.1,0.8-0.3,1.2-0.3c10.3,0,20.5,0,31,0c0,6.4,0,12.6,0,19.1c-2,0-4,0-6.2,0
		c0-4.2,0-8.3,0-12.5c-6.5,0-12.7,0-18.9,0c-0.3,2.2-0.5,4.4-0.8,6.5l0,0C10.2,83.3,8.1,83.2,6.1,83.1L6.1,83.1z"/>
	<path d="M64.2,6.5c0-2.1,0-4.2,0-6.5c8.4,0,16.9,0,25.4,0c0,2,0,3.9,0,6.1c-2,0-4,0-6,0c0,4.4,0,8.6,0,12.7l0,0
		c-4.3,0-8.7,0-13.1,0c0-1.9,0-3.9,0-6.1c2,0,4,0,6.1,0c0-2.2,0-4.2,0-6.3C72.5,6.5,68.3,6.5,64.2,6.5C64.2,6.5,64.2,6.5,64.2,6.5z"
		/>
	<path d="M76.8,95.8c-2,0.1-4,0.2-6.5,0.4c0,8.5,0,17,0,25.5l0.1-0.1c-2.1,0-4.3-0.1-6.4-0.1l0.1,0.1c0-10.5,0-21.1,0-31.8
		c4.3,0,8.4,0,12.7,0C76.7,91.8,76.7,93.9,76.8,95.8C76.7,95.9,76.8,95.8,76.8,95.8z"/>
	<path d="M83.5,70.2c0-4.2,0-8.3,0-12.6c2.1,0,4,0,6.2,0c0,2,0,4,0,6.2c2.3,0,4.2,0,6.4,0c0-2,0-4,0-6.1c2.2,0,4.1,0,6.3,0
		c0,4.1,0,8.2,0,12.5C96.1,70.2,89.9,70.2,83.5,70.2z"/>
	<path d="M6,70.7c-1.9-0.2-3.9-0.3-6-0.5c0-4.1,0-8.3,0-12.6c8.5,0,16.9,0,25.4,0c0,2.1,0,4,0,6.2c-6.3,0-12.6,0-19,0
		C6.3,66.4,6.2,68.6,6,70.7C6,70.8,6,70.7,6,70.7z"/>
	<path d="M83.5,121.8c10.6,0,21,0,31.7,0c0,2,0,4,0,6.1c-10.5,0-21,0-31.7,0C83.5,125.9,83.5,123.9,83.5,121.8z"/>
	<path d="M51.5,70.5c-2.1,0-4.2,0-6.5,0c0-6.5,0-12.8,0-19.2c2,0,4,0,6.2,0c0,2,0,4,0,6.1c2.3,0,4.4,0,6.5,0l-0.1-0.1
		c0,2.1,0,4.2,0,6.5c-2.1,0-4.1,0-6.2,0C51.4,66.3,51.4,68.4,51.5,70.5C51.4,70.6,51.5,70.5,51.5,70.5z"/>
	<path d="M76.8,31.6c2.1,0.1,4.2,0.3,6.5,0.5c0,2,0,4,0,6.2c2.2,0,4.2,0,6.4,0c0,2.2,0,4.1,0,6.3c-6.3,0-12.6,0-19,0c0-2,0-4,0-6.2
		c2,0,3.9,0,6.2,0C76.8,36,76.8,33.8,76.8,31.6L76.8,31.6z"/>
	<path d="M12.6,51.1c-4.2,0-8.3,0-12.5,0c0-4.1,0-8.2,0-12.5c4.1,0,8.2,0,12.5,0C12.6,42.7,12.6,46.8,12.6,51.1z"/>
	<path d="M76.6,77c-1.9-0.1-3.9-0.2-6-0.3c0-8.4,0-16.8,0-25.4c1.9,0,3.9,0,6.1,0c0.1,0.4,0.2,0.8,0.2,1.2c0,7.6,0,15.3,0,22.9
		C76.8,76,76.6,76.5,76.6,77C76.5,77.1,76.6,77,76.6,77z"/>
	<path d="M102.4,109.1c0,2.1,0,4,0,6.1c-8.4,0-16.8,0-25.4,0c0-1.9,0-3.9,0-6.1C85.4,109.1,93.8,109.1,102.4,109.1z"/>
	<path d="M122,109c2,0,4,0,6.1,0c0,6.4,0,12.7,0,19c-2,0-4,0-6.1,0C122,121.6,122,115.3,122,109L122,109z"/>
	<path d="M63.9,121.5c0,2.1,0,4.2,0,6.5c-4.1,0-8.2,0-12.5,0c0-2,0-3.9,0-6.4C55.6,121.6,59.8,121.6,63.9,121.5
		C64,121.6,63.9,121.5,63.9,121.5z"/>
	<path d="M115,102.8c-1.9-0.2-3.8-0.3-5.9-0.5c0-2,0-3.9,0-6.1c2,0,4,0,6.4,0C115.3,98.5,115.1,100.7,115,102.8
		C115,102.9,115,102.8,115,102.8z"/>
	<path d="M122,108.9c-2.1,0.1-4.1,0.2-6.2,0.3l0,0c-0.2-1.3-0.3-2.7-0.5-4c-0.1-0.8-0.2-1.6-0.4-2.4c0,0,0,0,0,0c2.4,0,4.8,0,7.2,0
		c0,0,0,0,0,0C122.1,104.9,122,106.9,122,108.9C122,109,122,108.9,122,108.9z"/>
	<path d="M12.3,83.5c2.2,0,4.4,0,6.8,0c0,2,0,3.9,0,6.1c-2.1,0-4.1,0-6,0C12.8,87.4,12.5,85.5,12.3,83.5
		C12.3,83.5,12.3,83.5,12.3,83.5z"/>
	<path d="M115.8,109.2c-0.2,1.9-0.5,3.8-0.7,6c-1.9,0-3.8,0-6,0c0-2,0-4,0-6.3C111.4,109,113.6,109.1,115.8,109.2
		C115.8,109.2,115.8,109.2,115.8,109.2z"/>
	<path d="M70.3,121.7c2.1,0,4.2,0,6.4,0c0,2.2,0,4.2,0,6.3c-2,0-4,0-6.3,0C70.4,125.8,70.4,123.7,70.3,121.7
		C70.4,121.6,70.3,121.7,70.3,121.7z"/>
	<path d="M44.6,25.4c-2,0-4,0-6.1,0c0-2.1,0-4,0-6.1c2,0,4,0,6.1,0C44.6,21.3,44.6,23.4,44.6,25.4C44.6,25.4,44.6,25.4,44.6,25.4z"
		/>
	<path d="M83.6,18.9c1.9,0.1,3.9,0.2,6,0.3c0,2,0,4,0,6.1c-2,0-4,0-6.4,0C83.4,23.1,83.5,21,83.6,18.9
		C83.7,18.9,83.6,18.9,83.6,18.9z"/>
	<path d="M6,83.1c0.1,2.1,0.2,4.2,0.3,6.4c-2.2,0-4.2,0-6.3,0c0-2,0-4,0-6.4C2.1,83.1,4.1,83.1,6,83.1C6.1,83.1,6,83.1,6,83.1z"/>
	<path d="M76.8,31.6c-2,0.1-4,0.3-6.2,0.5c0-2.3,0-4.2,0-6.4c1.9,0,3.9,0,6.1,0C76.8,27.6,76.8,29.6,76.8,31.6
		C76.8,31.6,76.8,31.6,76.8,31.6z"/>
	<path d="M51.6,77.1c0-2.2-0.1-4.4-0.1-6.5c0,0,0,0,0,0c2,0,4,0,6.1,0c0,2,0,4,0,6.1C55.5,76.8,53.5,76.9,51.6,77.1
		C51.6,77,51.6,77.1,51.6,77.1z"/>
	<path d="M57.7,57.4c0-2,0-3.9,0-6.1c2.1,0,4.1,0,6.2,0c0,2,0,3.9,0,6C61.8,57.4,59.7,57.4,57.7,57.4C57.6,57.4,57.7,57.4,57.7,57.4
		z"/>
	<path class="st0" d="M115.3,12.8c-2.2,0-4.1,0-6.2,0c0,2.1,0,4.1,0,6.1c2.1,0,4.1,0,6.2,0C115.3,16.8,115.3,14.9,115.3,12.8z"/>
	<path d="M19.1,109.1c0,2.1,0,4,0,6.1c-2,0-4,0-6.2,0c0-1.9,0-3.9,0-6.1C14.9,109.1,16.9,109.1,19.1,109.1z"/>
	<path d="M12.9,18.9c0-2.1,0-4.1,0-6.1c2.1,0,4.1,0,6.2,0c0,2,0,4,0,6.1C17,18.9,15,18.9,12.9,18.9z"/>
	<path d="M115.3,12.8c0,2.1,0,4,0,6.1c-2,0-4,0-6.2,0c0-2,0-4,0-6.1C111.1,12.8,113,12.8,115.3,12.8z"/>
</g>
</svg>
